<?xml version="1.0" encoding="UTF-8" standalone="no"?>
<svg
   xmlns:dc="http://purl.org/dc/elements/1.1/"
   xmlns:cc="http://creativecommons.org/ns#"
   xmlns:rdf="http://www.w3.org/1999/02/22-rdf-syntax-ns#"
   xmlns:svg="http://www.w3.org/2000/svg"
   xmlns="http://www.w3.org/2000/svg"
   xmlns:sodipodi="http://sodipodi.sourceforge.net/DTD/sodipodi-0.dtd"
   xmlns:inkscape="http://www.inkscape.org/namespaces/inkscape"
   version="1.0"
   width="512px"
   height="512px"
   viewBox="0 0 512 512"
   preserveAspectRatio="xMidYMid meet"
   id="svg190"
   sodipodi:docname="gidabotapp_icon_update.svg"
   inkscape:version="0.92.3 (2405546, 2018-03-11)">
  <metadata
     id="metadata196">
    <rdf:RDF>
      <cc:Work
         rdf:about="">
        <dc:format>image/svg+xml</dc:format>
        <dc:type
           rdf:resource="http://purl.org/dc/dcmitype/StillImage" />
        <dc:title />
      </cc:Work>
    </rdf:RDF>
  </metadata>
  <defs
     id="defs194" />
  <sodipodi:namedview
     pagecolor="#ffffff"
     bordercolor="#666666"
     borderopacity="1"
     objecttolerance="10"
     gridtolerance="10"
     guidetolerance="10"
     inkscape:pageopacity="0"
     inkscape:pageshadow="2"
     inkscape:window-width="1280"
     inkscape:window-height="900"
     id="namedview192"
     showgrid="false"
     inkscape:zoom="1.2139473"
     inkscape:cx="276.09441"
     inkscape:cy="275.1597"
     inkscape:window-x="1280"
     inkscape:window-y="0"
     inkscape:window-maximized="0"
     inkscape:current-layer="svg190" />
  <g
     fill="#d2d9df"
     id="g28"
     style="fill:#eceff1;fill-opacity:1">
    <path
       d="M113 491.3 c-25.4 -1.9 -45 -10.5 -62.7 -27.6 -10.4 -10 -18.2 -21.8 -23.3 -34.8 -4.5 -11.6 -6 -20.8 -6.6 -38.9 l-0.6 -17.5 42.1 -46.9 c23.2 -25.8 42 -47.3 41.9 -47.6 -0.2 -0.4 -17.2 -16.2 -37.8 -35.1 l-37.5 -34.3 -0.3 19.7 -0.2 19.7 -4 0 -4 0 0 -65 c0 -39.6 0.4 -68.8 1.1 -74.7 4.3 -38.9 28.9 -69.9 65.9 -82.9 l6.5 -2.3 3.3 3.2 c2.6 2.6 3.2 3.8 3 6.5 -0.3 3.2 -0.7 3.5 -7.2 5.8 -25 8.7 -44.1 26.1 -55.7 50.8 -6.6 14.2 -8.1 22 -8.6 46.6 l-0.5 21.5 46.2 42 c25.4 23.1 48.4 43.9 51 46.2 l4.8 4.3 19.2 -21.5 c17.6 -19.7 19.5 -21.5 22.5 -21.5 3.1 0 3.3 0.2 4 4.7 2 14.2 9.9 29.8 33.6 66.8 26.7 41.7 36.6 62.3 45.9 95.4 1.7 5.8 3 11.5 3 12.8 0 1.7 -13.1 17 -46.1 53.8 l-46.1 51.5 -24.1 -0.2 c-13.3 -0.1 -26.2 -0.3 -28.7 -0.5z"
       id="path2"
       style="fill:#eceff1;fill-opacity:1" />
    <path
       d="M239 481.5 c0 -3.1 2.5 -6.3 23.8 -30.4 22.4 -25.4 23.9 -27 27.2 -27 3.3 -0.1 5.2 1.6 30.8 27.2 24.4 24.4 27.2 27.5 27.2 30.5 l0 3.2 -54.5 0 -54.5 0 0 -3.5z"
       id="path4"
       style="fill:#eceff1;fill-opacity:1" />
    <path
       d="M258.7 379.3 c-3.9 -3.9 8.5 -38.7 23.3 -65.4 3.2 -5.8 12.9 -21.5 21.5 -35 8.5 -13.4 17.2 -27.7 19.3 -31.7 3.7 -7.2 3.7 -7.3 7.4 -7 3.1 0.3 5.8 2.2 17.7 12.8 13.4 11.8 14.1 12.6 14.1 16.2 0 3.6 -2.7 6.8 -47.7 57.2 -46 51.4 -47.9 53.5 -51.4 53.5 -2 0.1 -3.9 -0.2 -4.2 -0.6z"
       id="path6"
       style="fill:#eceff1;fill-opacity:1" />
    <path
       d="M464.6 280.3 c-21.2 -19.5 -23.6 -22.1 -23.6 -24.9 0 -2.7 3.4 -7 23.6 -29.5 12.9 -14.5 24.4 -26.5 25.5 -26.7 1.9 -0.3 1.9 0.8 1.9 51.2 0 50.1 -0.1 51.6 -1.9 51.6 -1.1 0 -11.9 -9.2 -25.5 -21.7z"
       id="path8"
       style="fill:#eceff1;fill-opacity:1" />
    <path
       d="M255 272.5 c0 -3.3 0.2 -3.5 3.5 -3.5 3.3 0 3.5 0.2 3.5 3.5 0 3.3 -0.2 3.5 -3.5 3.5 -3.3 0 -3.5 -0.2 -3.5 -3.5z"
       id="path10"
       style="fill:#eceff1;fill-opacity:1" />
    <path
       d="M222 262.9 c0 -2.9 1.9 -5.9 3.7 -5.9 0.5 0 0.7 -1.8 0.5 -4 l-0.4 -4 3.6 0 c2.2 0 3.9 0.6 4.2 1.4 0.3 0.8 2.5 2 5 2.7 4 1.2 4.4 1.6 4.4 4.6 0 2.6 -0.4 3.3 -2 3.3 -1.5 0 -2 0.7 -2 2.5 0 2.2 -0.4 2.5 -3.5 2.5 -3.4 0 -3.5 -0.2 -3.6 -3.7 -0.1 -2.7 -0.3 -3.1 -0.6 -1.4 -0.7 3.4 -2.7 5.1 -6.2 5.1 -2.8 0 -3.1 -0.3 -3.1 -3.1z"
       id="path12"
       style="fill:#eceff1;fill-opacity:1" />
    <path
       d="M222 244.5 c0 -3.3 0.2 -3.5 3.5 -3.5 3.3 0 3.5 0.2 3.5 3.5 0 3.3 -0.2 3.5 -3.5 3.5 -3.3 0 -3.5 -0.2 -3.5 -3.5z"
       id="path14"
       style="fill:#eceff1;fill-opacity:1" />
    <path
       d="M204.3 223 c-0.3 -1.1 -0.9 -2 -1.4 -2 -0.5 0 -0.9 -1.6 -0.9 -3.5 0 -3.2 0.2 -3.5 3 -3.5 2.3 0 3 -0.4 3 -2 0 -1.6 0.7 -2 3.5 -2 2.8 0 3.5 0.4 3.5 2 0 1.8 0.7 2 6.5 2 l6.5 0 0 3.5 0 3.5 -8 0 c-7.3 0 -8 0.2 -8 2 0 1.6 -0.7 2 -3.6 2 -2.7 0 -3.7 -0.5 -4.1 -2z"
       id="path16"
       style="fill:#eceff1;fill-opacity:1" />
    <path
       d="M200.7 207.4 c-0.4 -0.4 -0.7 -3.6 -0.7 -7 0 -7.3 1.1 -8.4 8.2 -8.4 6.8 0 8 1.4 7.6 9 l-0.3 6.5 -7 0.3 c-3.9 0.1 -7.4 0 -7.8 -0.4z"
       id="path18"
       style="fill:#eceff1;fill-opacity:1" />
    <path
       d="M222 200.5 l0 -6.5 32.6 0 32.6 0 -0.7 -7.5 -0.7 -7.5 3.5 0 3.5 0 0.7 6.3 c0.4 3.4 0.5 8.2 0.3 10.7 l-0.3 4.5 -15.7 0.3 -15.8 0.3 0 2.9 0 3 -20 0 -20 0 0 -6.5z"
       id="path20"
       style="fill:#eceff1;fill-opacity:1" />
    <path
       d="M242 192 c0 -0.5 -1.1 -1 -2.4 -1 -3.2 0 -3.3 -0.2 -4.1 -8 -0.8 -7.9 0.8 -10.7 6.7 -11.7 5 -0.8 10.8 0.4 10.8 2.2 0 0.8 0.7 1.5 1.5 1.5 1.2 0 1.5 1.4 1.5 7 0 5.6 -0.3 7 -1.5 7 -0.8 0 -1.5 0.6 -1.5 1.4 0 0.7 -1 1.6 -2.2 2 -3.6 0.9 -8.8 0.7 -8.8 -0.4z m4.6 -9.5 c0.4 -0.8 0.3 -2.3 0 -3.2 -0.6 -1.5 -0.9 -1.5 -2.8 0.4 -2.1 2.2 -1.8 4.3 0.8 4.3 0.8 0 1.7 -0.7 2 -1.5z"
       id="path22"
       style="fill:#eceff1;fill-opacity:1" />
    <path
       d="M265.3 191.5 c-0.7 -0.8 -1.3 -1.8 -1.3 -2.3 0 -0.6 -1.2 -1.3 -2.6 -1.6 -2.6 -0.7 -2.6 -0.8 -1.9 -6.9 0.8 -7.2 1 -7.7 3.6 -7.7 1 0 1.9 -0.4 1.9 -1 0 -0.5 2.2 -1 4.9 -1 5.1 0 6.1 0.9 6.1 5.1 0 1.4 0.7 1.9 2.5 1.9 2.2 0 2.5 0.4 2.5 3.3 0 4.7 -1 7.7 -2.6 7.7 -0.8 0 -1.4 0.6 -1.4 1.4 0 2.7 -9.6 3.6 -11.7 1.1z m7.7 -7.4 c0 -0.5 0.3 -1.6 0.6 -2.5 0.5 -1.3 -0.1 -1.6 -2.9 -1.6 -3 0 -3.4 0.3 -3 1.9 0.6 2.3 5.3 4.2 5.3 2.2z"
       id="path24"
       style="fill:#eceff1;fill-opacity:1" />
    <path
       d="M222 184.6 c0 -4.5 1.3 -8.6 2.6 -8.6 0.9 0 1.4 -1.1 1.4 -3 0 -2.7 0.3 -3 3 -3 2.7 0 3 -0.3 3 -3 0 -2 0.5 -3 1.5 -3 0.8 0 1.5 -0.5 1.5 -1 0 -0.6 2 -1.5 4.5 -2.2 2.5 -0.7 4.5 -1.6 4.5 -2 0 -0.4 1.1 -0.8 2.5 -0.8 2.2 0 2.5 -0.4 2.5 -3.4 0 -2.5 0.5 -3.5 2 -3.9 1.6 -0.4 2 -1.4 2 -5.1 0 -2.6 -0.5 -4.6 -1.1 -4.6 -0.6 0 -0.9 -1.6 -0.7 -3.7 l0.3 -3.8 6.5 0 6.5 0 0 6 c0 5.3 -0.3 6.1 -2.2 7 -2.8 1.2 -3 3.5 -0.3 3.5 1.1 0 2 0.4 2 0.9 0 0.5 1 1.1 2.3 1.3 1.7 0.2 2.3 1.1 2.5 3.4 0.3 2.8 0.8 3.3 3.8 3.9 4.4 0.8 8.4 2.5 8.4 3.7 0 0.4 0.6 0.8 1.3 0.8 2.3 0 4.7 3.5 4.7 6.8 0 3 -0.2 3.2 -3.4 3.2 -2.4 0 -4 -0.7 -5.3 -2.2 -1.9 -2.4 -8.3 -5.8 -10.8 -5.8 -1 0 -1.5 -1 -1.5 -3 0 -2.3 -0.4 -3 -2 -3 -1 0 -2.3 -0.7 -2.8 -1.6 -0.7 -1.3 -1.8 -1.4 -5.5 -0.9 -4.5 0.7 -4.7 0.8 -4.7 4.1 0 2.7 -0.4 3.4 -2 3.4 -1.1 0 -2 0.4 -2 0.8 0 0.5 -1.8 1.5 -4 2.2 -2.2 0.7 -4 1.7 -4 2.2 0 0.4 -1.3 0.8 -3 0.8 -2.7 0 -3 0.3 -3 3 0 1.9 -0.5 3 -1.4 3 -0.9 0 -1.6 1.8 -2 5 -0.7 4.9 -0.7 5 -4.1 5 -3 0 -3.5 -0.3 -3.5 -2.4z"
       id="path26"
       style="fill:#eceff1;fill-opacity:1" />
  </g>
  <g
     fill="#eceb9f"
     id="g92"
     style="fill:#ffe57f;fill-opacity:1">
    <path
       d="M238.2 481.3 c0.3 -3.3 0.7 -3.8 3.1 -4.1 2.2 -0.3 2.7 -0.8 2.7 -3.1 0 -3.5 1.7 -5.1 5.2 -5.1 2.5 0 2.8 -0.4 2.8 -3.3 0 -3.9 1.5 -5.7 4.7 -5.7 1.9 0 2.3 -0.5 2.3 -2.8 0 -3.3 2.7 -6.2 5.8 -6.2 1.7 0 2.2 -0.6 2.2 -2.8 0 -3.3 2.7 -6.2 5.8 -6.2 1.7 0 2.2 -0.6 2.2 -2.8 0 -3.6 1.6 -5.2 5.2 -5.2 2.5 0 2.8 -0.4 2.8 -3.3 0 -1.8 0.5 -3.8 1.2 -4.5 1.8 -1.8 7.8 -1.6 7.8 0.3 0 0.8 -0.6 1.3 -1.2 1 -0.7 -0.2 -12.1 11.9 -25.3 26.8 -20.6 23.4 -23.6 27.2 -21.6 27.5 3.5 0.5 1.9 2.7 -2.3 3 l-3.7 0.3 0.3 -3.8z"
       id="path30"
       style="fill:#ffe57f;fill-opacity:1" />
    <path
       d="M169.2 482.2 c0.7 -1 19.8 -22.5 42.3 -47.6 38.9 -43.5 41 -45.7 41.3 -42.7 0.4 4.1 -1.2 6.1 -4.9 6.1 -2.6 0 -2.9 0.3 -2.9 3.3 0 3.8 -2.5 6.7 -5.8 6.7 -1.7 0 -2.2 0.6 -2.2 2.8 0 3.4 -3.6 7.2 -6.8 7.2 -1.7 0 -2.2 0.6 -2.2 2.8 0 3.3 -2.7 6.2 -5.8 6.2 -1.7 0 -2.2 0.6 -2.2 2.8 0 3.4 -3.6 7.2 -6.8 7.2 -1.7 0 -2.2 0.6 -2.2 2.8 0 3.3 -2.7 6.2 -5.8 6.2 -1.7 0 -2.2 0.6 -2.2 2.8 0 3.4 -3.6 7.2 -6.8 7.2 -1.7 0 -2.2 0.6 -2.2 2.8 0 3.3 -2.7 6.2 -5.8 6.2 -1.7 0 -2.2 0.6 -2.2 2.8 0 3.5 -2.7 6.2 -6.3 6.2 -2.4 0 -2.7 0.4 -2.7 3.3 0 4 -2.6 6.7 -6.4 6.7 -2.4 0 -2.6 -0.2 -1.4 -1.8z"
       id="path32"
       style="fill:#ffe57f;fill-opacity:1" />
    <path
       d="M487.2 301.8 c-0.7 -0.7 -1.2 -2.5 -1.2 -4.1 l0 -2.8 3 2.1 c3.3 2.4 4.1 6 1.2 6 -1 0 -2.3 -0.5 -3 -1.2z"
       id="path34"
       style="fill:#ffe57f;fill-opacity:1" />
    <path
       d="M475.1 290.6 c-1.5 -1.6 -2.1 -3.3 -1.9 -5.2 l0.3 -2.8 5.5 5.2 5.5 5.1 -3.6 0.1 c-2.5 0 -4.2 -0.7 -5.8 -2.4z"
       id="path36"
       style="fill:#ffe57f;fill-opacity:1" />
    <path
       d="M462.1 278.6 c-1.5 -1.6 -2.1 -3.3 -1.9 -5.2 l0.3 -2.8 5.5 5.2 5.5 5.1 -3.6 0.1 c-2.5 0 -4.2 -0.7 -5.8 -2.4z"
       id="path38"
       style="fill:#ffe57f;fill-opacity:1" />
    <path
       d="M449.1 266.6 c-1.5 -1.6 -2.1 -3.3 -1.9 -5.2 l0.3 -2.8 5.5 5.2 5.5 5.1 -3.6 0.1 c-2.5 0 -4.2 -0.7 -5.8 -2.4z"
       id="path40"
       style="fill:#ffe57f;fill-opacity:1" />
    <path
       d="M441.2 254.3 c0.3 -3.5 0.6 -3.8 3.6 -4.1 2.9 -0.3 3.2 -0.6 3.2 -3.6 0 -3.9 1.5 -5.6 5.2 -5.6 2.5 0 2.8 -0.3 2.8 -3.3 0 -4 2.5 -6.7 6.3 -6.7 2.4 0 2.7 -0.4 2.7 -3.3 0 -3.8 2.5 -6.7 5.8 -6.7 1.7 0 2.2 -0.6 2.2 -2.8 0 -3.5 2.7 -6.2 6.3 -6.2 2.4 0 2.7 -0.4 2.7 -3.3 0 -3.7 1.5 -5.7 4.2 -5.7 1.3 0 1.8 -0.8 1.8 -2.5 0 -1.8 0.5 -2.5 2 -2.5 1.2 0 2 0.7 2 1.8 0 1 -10.8 13.8 -24 28.6 -19.1 21.4 -23.8 27.1 -22.9 28.2 0.9 1.1 0.6 1.4 -1.5 1.4 -2.5 0 -2.7 -0.3 -2.4 -3.7z"
       id="path42"
       style="fill:#ffe57f;fill-opacity:1" />
    <path
       d="M400.5 220.1 c-2.6 -0.5 -3 -1.1 -3.3 -4.4 -0.3 -3.6 -0.3 -3.7 3.2 -3.7 1.9 0 3.8 0.5 4.1 1 0.3 0.6 1.7 1 3.1 1 2.1 0 2.4 0.5 2.4 3.5 0 3.3 -0.2 3.5 -3.2 3.4 -1.8 -0.1 -4.6 -0.4 -6.3 -0.8z"
       id="path44"
       style="fill:#ffe57f;fill-opacity:1" />
    <path
       d="M412 207.5 c0 -3.3 0.2 -3.5 3.5 -3.5 3.3 0 3.5 0.2 3.5 3.5 0 3.3 -0.2 3.5 -3.5 3.5 -3.3 0 -3.5 -0.2 -3.5 -3.5z"
       id="path46"
       style="fill:#ffe57f;fill-opacity:1" />
    <path
       d="M384.7 207.3 c-0.4 -0.3 -0.7 -2.2 -0.7 -4 0 -3.3 0.1 -3.4 3.8 -3.1 3.5 0.3 3.7 0.5 4 4.1 0.3 3.6 0.2 3.7 -3.1 3.7 -1.8 0 -3.7 -0.3 -4 -0.7z"
       id="path48"
       style="fill:#ffe57f;fill-opacity:1" />
    <path
       d="M421 197.5 c0 -3.3 0.2 -3.5 3.5 -3.5 3.3 0 3.5 0.2 3.5 3.5 0 3.3 -0.2 3.5 -3.5 3.5 -3.3 0 -3.5 -0.2 -3.5 -3.5z"
       id="path50"
       style="fill:#ffe57f;fill-opacity:1" />
    <path
       d="M371.7 195.3 c-0.4 -0.3 -0.7 -2.2 -0.7 -4 0 -3.3 0.1 -3.4 3.8 -3.1 3.5 0.3 3.7 0.5 4 4.1 0.3 3.6 0.2 3.7 -3.1 3.7 -1.8 0 -3.7 -0.3 -4 -0.7z"
       id="path52"
       style="fill:#ffe57f;fill-opacity:1" />
    <path
       d="M429.2 188.3 c0.3 -3.6 0.5 -3.8 4.1 -4.1 l3.8 -0.3 -0.3 3.8 c-0.3 3.6 -0.5 3.8 -4.1 4.1 l-3.8 0.3 0.3 -3.8z"
       id="path54"
       style="fill:#ffe57f;fill-opacity:1" />
    <path
       d="M358.7 183.3 c-0.4 -0.3 -0.7 -2.2 -0.7 -4 0 -3.3 0.1 -3.4 3.8 -3.1 3.5 0.3 3.7 0.5 4 4.1 0.3 3.6 0.2 3.7 -3.1 3.7 -1.8 0 -3.7 -0.3 -4 -0.7z"
       id="path56"
       style="fill:#ffe57f;fill-opacity:1" />
    <path
       d="M438.2 178.3 c0.3 -3.6 0.5 -3.8 4.1 -4.1 l3.8 -0.3 -0.3 3.8 c-0.3 3.6 -0.5 3.8 -4.1 4.1 l-3.8 0.3 0.3 -3.8z"
       id="path58"
       style="fill:#ffe57f;fill-opacity:1" />
    <path
       d="M345.7 171.3 c-0.4 -0.3 -0.7 -2.2 -0.7 -4 0 -3.3 0.1 -3.4 3.8 -3.1 3.5 0.3 3.7 0.5 4 4.1 0.3 3.6 0.2 3.7 -3.1 3.7 -1.8 0 -3.7 -0.3 -4 -0.7z"
       id="path60"
       style="fill:#ffe57f;fill-opacity:1" />
    <path
       d="M447 168.5 c0 -3.3 0.2 -3.5 3.5 -3.5 3.3 0 3.5 0.2 3.5 3.5 0 3.3 -0.2 3.5 -3.5 3.5 -3.3 0 -3.5 -0.2 -3.5 -3.5z"
       id="path62"
       style="fill:#ffe57f;fill-opacity:1" />
    <path
       d="M456 158.5 c0 -3.3 0.2 -3.5 3.5 -3.5 3.3 0 3.5 0.2 3.5 3.5 0 3.3 -0.2 3.5 -3.5 3.5 -3.3 0 -3.5 -0.2 -3.5 -3.5z"
       id="path64"
       style="fill:#ffe57f;fill-opacity:1" />
    <path
       d="M332.7 159.3 c-0.4 -0.3 -0.7 -2.2 -0.7 -4 0 -3.3 0.1 -3.4 3.8 -3.1 3.5 0.3 3.7 0.5 4 4.1 0.3 3.6 0.2 3.7 -3.1 3.7 -1.8 0 -3.7 -0.3 -4 -0.7z"
       id="path66"
       style="fill:#ffe57f;fill-opacity:1" />
    <path
       d="M465 148.5 c0 -3.3 0.2 -3.5 3.5 -3.5 3.3 0 3.5 0.2 3.5 3.5 0 3.3 -0.2 3.5 -3.5 3.5 -3.3 0 -3.5 -0.2 -3.5 -3.5z"
       id="path68"
       style="fill:#ffe57f;fill-opacity:1" />
    <path
       d="M319.7 147.3 c-0.4 -0.3 -0.7 -2.2 -0.7 -4 0 -3.3 0.1 -3.4 3.8 -3.1 3.5 0.3 3.7 0.5 4 4.1 0.3 3.6 0.2 3.7 -3.1 3.7 -1.8 0 -3.7 -0.3 -4 -0.7z"
       id="path70"
       style="fill:#ffe57f;fill-opacity:1" />
    <path
       d="M474 138.5 c0 -3.3 0.2 -3.5 3.5 -3.5 3.3 0 3.5 0.2 3.5 3.5 0 3.3 -0.2 3.5 -3.5 3.5 -3.3 0 -3.5 -0.2 -3.5 -3.5z"
       id="path72"
       style="fill:#ffe57f;fill-opacity:1" />
    <path
       d="M306 131.5 c0 -3.3 0.2 -3.5 3.5 -3.5 3.3 0 3.5 0.2 3.5 3.5 0 3.3 -0.2 3.5 -3.5 3.5 -3.3 0 -3.5 -0.2 -3.5 -3.5z"
       id="path74"
       style="fill:#ffe57f;fill-opacity:1" />
    <path
       d="M483.3 121.8 c0 -8.3 -0.5 -12 -2.7 -19.1 -7.5 -25 -24.2 -45.7 -46.7 -58.1 -7 -3.8 -11.6 -5.7 -22.4 -8.9 -6.9 -2.1 -8.8 -2.1 -104.7 -2.4 l-97.8 -0.4 0 3.1 c0 3 -0.2 3.1 -3.8 2.8 -3.2 -0.3 -3.7 -0.7 -4 -3 l-0.3 -2.8 -43.2 0 c-35.6 0 -44.7 0.3 -52.3 1.6 -9.3 1.7 -15.6 1.2 -10.5 -0.7 l2.5 -1 -4.3 -4.3 -4.2 -4.3 9.3 -1.9 c8.9 -1.8 16.2 -1.9 159.3 -1.9 l150 0 10 2.8 c44.1 12.1 71.5 46.6 74.1 93.1 0.8 14.1 0.3 15.6 -5.1 15.6 l-3.2 0 0 -10.2z"
       id="path76"
       style="fill:#ffe57f;fill-opacity:1" />
    <path
       d="M293 119.5 c0 -3.3 0.2 -3.5 3.5 -3.5 3.3 0 3.5 0.2 3.5 3.5 0 3.3 -0.2 3.5 -3.5 3.5 -3.3 0 -3.5 -0.2 -3.5 -3.5z"
       id="path78"
       style="fill:#ffe57f;fill-opacity:1" />
    <path
       d="M280 107.5 c0 -3.3 0.2 -3.5 3.5 -3.5 3.3 0 3.5 0.2 3.5 3.5 0 3.3 -0.2 3.5 -3.5 3.5 -3.3 0 -3.5 -0.2 -3.5 -3.5z"
       id="path80"
       style="fill:#ffe57f;fill-opacity:1" />
    <path
       d="M267 95.5 c0 -3.3 0.2 -3.5 3.5 -3.5 3.3 0 3.5 0.2 3.5 3.5 0 3.3 -0.2 3.5 -3.5 3.5 -3.3 0 -3.5 -0.2 -3.5 -3.5z"
       id="path82"
       style="fill:#ffe57f;fill-opacity:1" />
    <path
       d="M254 83.5 c0 -3.3 0.2 -3.5 3.5 -3.5 3.3 0 3.5 0.2 3.5 3.5 0 3.3 -0.2 3.5 -3.5 3.5 -3.3 0 -3.5 -0.2 -3.5 -3.5z"
       id="path84"
       style="fill:#ffe57f;fill-opacity:1" />
    <path
       d="M241 71.5 c0 -3.3 0.2 -3.5 3.5 -3.5 3.3 0 3.5 0.2 3.5 3.5 0 3.3 -0.2 3.5 -3.5 3.5 -3.3 0 -3.5 -0.2 -3.5 -3.5z"
       id="path86"
       style="fill:#ffe57f;fill-opacity:1" />
    <path
       d="M228 59.5 c0 -3.3 0.2 -3.5 3.5 -3.5 3.3 0 3.5 0.2 3.5 3.5 0 3.3 -0.2 3.5 -3.5 3.5 -3.3 0 -3.5 -0.2 -3.5 -3.5z"
       id="path88"
       style="fill:#ffe57f;fill-opacity:1" />
    <path
       d="M215 47.5 c0 -3.3 0.2 -3.5 3.5 -3.5 3.3 0 3.5 0.2 3.5 3.5 0 3.3 -0.2 3.5 -3.5 3.5 -3.3 0 -3.5 -0.2 -3.5 -3.5z"
       id="path90"
       style="fill:#ffe57f;fill-opacity:1" />
  </g>
  <g
     fill="#ffcd56"
     id="g98"
     style="fill:#ffd740;fill-opacity:1">
    <path
       d="M173.9 477.1 c48.8 -54.1 80.8 -90.7 80.4 -91.8 -0.3 -0.8 0.3 -1.3 1.6 -1.3 1.5 0 2.1 0.6 2.1 2.2 0 1.5 5.5 7.7 17.5 19.8 14.4 14.5 17.5 18.1 17.5 20.4 0 2.4 -0.2 2.7 -1.5 1.6 -0.9 -0.7 -1.9 -1 -2.3 -0.6 -0.4 0.4 -11.3 12.8 -24.3 27.4 -21.2 23.9 -23.4 26.7 -21.2 27 2 0.3 2.2 0.6 1.2 1.8 -0.9 1.2 -7.5 1.4 -39.6 1.4 l-38.5 0 7.1 -7.9z"
       id="path94"
       style="fill:#ffd740;fill-opacity:1" />
    <path
       d="M399 233.4 c-49.2 -49.7 -92.2 -92.4 -95.6 -94.9 -18.3 -13.4 -45.2 -19.3 -64.4 -14.1 -8.4 2.3 -18.5 6.3 -23.2 9.3 -7.8 4.8 -6.7 5.5 -45.3 -28.8 -51 -45.3 -75.5 -68.1 -75.5 -70 0 -0.5 0.8 -1.2 1.7 -1.7 4.9 -2.6 17 -3.2 62 -3.2 l47.1 0 99 91.5 c54.5 50.3 99.3 91.5 99.6 91.5 0.3 0 18 -19.5 39.4 -43.2 21.4 -23.8 39.9 -44.2 41.2 -45.3 l2.3 -2 -0.5 3.3 -0.5 3.2 2.9 -2.7 2.8 -2.7 0 38.6 0 38.6 -4.2 5 c-2.4 2.7 -13.2 14.8 -24 27 -10.9 12.1 -19.8 22.2 -19.8 22.5 0 0.3 10.8 10.5 24 22.7 l24 22.2 0 11.9 c0 10.7 -0.2 11.9 -1.7 11.8 -1 -0.1 -42.1 -40.8 -91.3 -90.5z"
       id="path96"
       style="fill:#ffd740;fill-opacity:1" />
  </g>
  <g
     fill="#c0ea56"
     id="g102"
     style="fill:#b2ff59;fill-opacity:1">
    <path
       d="M303.4 125.9 c-55.5 -51.2 -101.6 -93.7 -102.4 -94.5 -1.3 -1.3 12.3 -1.4 102.5 -1.1 102.3 0.3 104.1 0.3 111 2.4 10.8 3.2 15.4 5.1 22.4 8.9 28.5 15.7 48 45.6 49.8 76.4 l0.6 9.6 -40.9 45.6 c-22.5 25.1 -41.2 45.7 -41.5 45.7 -0.3 0.1 -46 -41.8 -101.5 -93z"
       id="path100"
       style="fill:#b2ff59;fill-opacity:1" />
  </g>
  <g
     id="g150"
     style="fill:#90a4ae;fill-opacity:1"
     fill="#99a5ae">
    <path
       d="M230 490.1 c0 -1.1 1.2 -3.3 2.6 -5 l2.6 -3.1 55.1 0 55.2 0 -29.2 -29.2 -29.2 -29.3 11.7 -13.1 c6.4 -7.1 27.9 -31 47.7 -53 19.7 -21.9 39 -43.4 42.8 -47.6 6 -6.7 7.5 -7.8 10.2 -7.8 2.8 0 8.7 4.9 47.8 40.1 l44.7 40 0 6.5 c0 3.6 -0.5 10.8 -1.1 16.1 -5 45.2 -41 81.2 -86.2 86.2 -6.1 0.7 -39.9 1.1 -92.2 1.1 -80.7 0 -82.5 0 -82.5 -1.9z"
       id="path104"
       style="fill:#90a4ae;fill-opacity:1" />
    <path
       d="M251.4 374.5 l-3.1 -10.5 2.2 0 c1.8 0 2.5 0.9 3.4 4.4 0.6 2.5 1.1 5.7 1.2 7.3 0 2.5 0.1 2.6 0.9 0.8 0.5 -1.1 2.7 -8 5 -15.2 2.3 -7.3 4.6 -13.3 5.1 -13.3 0.5 0 0.9 -1.1 0.9 -2.5 0 -1.4 0.5 -2.5 1 -2.5 0.6 0 1 -0.9 1 -2 0 -2.4 3.1 -9 4.2 -9 0.4 0 0.8 -1.1 0.8 -2.5 0 -2 0.5 -2.5 2.5 -2.5 1.4 0 2.5 0.2 2.5 0.4 0 0.2 -2.3 5.4 -5 11.5 -7.1 15.8 -13.7 35.8 -12.2 37.3 0.9 0.9 1.5 0.7 2.7 -0.8 1.3 -1.8 1.4 -1.7 1.5 1.7 0 4.4 -2.1 6.4 -7.5 7.2 l-4.1 0.7 -3 -10.5z"
       id="path106"
       style="fill:#90a4ae;fill-opacity:1" />
    <path
       d="M20 312 l0 -67 2.5 0 2.5 0 0.2 -22.4 0.3 -22.4 42 38.4 c23.1 21.1 42 38.8 42 39.4 0 0.5 -12.4 14.8 -27.6 31.7 -15.1 16.9 -35.3 39.5 -44.7 50 l-17.2 19.3 0 -67z"
       id="path108"
       style="fill:#90a4ae;fill-opacity:1" />
    <path
       d="M239.9 342.3 c-4.2 -9.5 -4.1 -9.3 -1.4 -9.3 2.2 0 2.5 0.4 2.5 3.5 0 2.4 0.5 3.5 1.5 3.5 1 0 1.5 1.1 1.5 3.5 0 4.9 -1.7 4.4 -4.1 -1.2z"
       id="path110"
       style="fill:#90a4ae;fill-opacity:1" />
    <path
       d="M280 320 c0 -3.7 1.9 -8 3.7 -8 0.7 0 1.3 -0.9 1.3 -1.9 0 -3 1.1 -5.1 2.6 -5.1 0.8 0 1.4 -1 1.4 -2.5 0 -1.4 0.5 -2.5 1 -2.5 0.6 0 1 -0.7 1 -1.5 0 -0.8 0.4 -1.5 0.9 -1.5 0.5 0 1.2 -1.1 1.5 -2.5 0.4 -1.4 1.1 -2.5 1.6 -2.5 0.6 0 1 -0.7 1 -1.5 0 -0.8 0.5 -1.5 1 -1.5 0.6 0 1 -0.7 1 -1.5 0 -0.8 0.4 -1.5 0.9 -1.5 0.5 0 1.2 -1.1 1.5 -2.5 0.4 -1.4 1.1 -2.5 1.6 -2.5 0.6 0 1 -0.7 1 -1.5 0 -0.8 0.5 -1.5 1 -1.5 0.6 0 1 -0.7 1 -1.5 0 -0.8 0.4 -1.5 0.9 -1.5 0.5 0 1.2 -1.1 1.5 -2.5 0.4 -1.4 1.1 -2.5 1.6 -2.5 0.6 0 1 -0.7 1 -1.5 0 -0.8 0.5 -1.5 1 -1.5 0.6 0 1 -0.7 1 -1.5 0 -0.8 0.5 -1.5 1 -1.5 0.6 0 1 -0.7 1 -1.5 0 -0.8 0.7 -1.5 1.5 -1.5 0.9 0 1.5 -0.9 1.5 -2.4 0 -1.4 0.6 -3.1 1.3 -3.8 0.7 -0.7 2.1 -3.2 3.1 -5.5 1.5 -3.3 2.5 -4.3 4.3 -4.3 1.2 0 2.3 0.4 2.3 0.8 0 1.5 -9.6 17.5 -23.3 38.9 -7.5 11.7 -15.7 25.1 -18.3 29.8 -2.6 4.7 -5.1 8.5 -5.6 8.5 -0.4 0 -0.8 -1.3 -0.8 -3z"
       id="path112"
       style="fill:#90a4ae;fill-opacity:1" />
    <path
       d="M228.2 318.1 c-2.7 -4.8 -2.7 -5.1 0.2 -5.1 2.6 0 3.6 1.6 3.6 6.1 0 4 -1.2 3.6 -3.8 -1z"
       id="path114"
       style="fill:#90a4ae;fill-opacity:1" />
    <path
       d="M212.7 292.1 c-2.2 -3.8 -2.2 -4.1 0.8 -4.1 2.2 0 2.5 0.4 2.5 3.5 0 4.3 -1 4.4 -3.3 0.6z"
       id="path116"
       style="fill:#90a4ae;fill-opacity:1" />
    <path
       d="M204.8 279.6 c-3.4 -5.3 -3.4 -5.6 -0.3 -5.6 1.6 0 2.5 0.6 2.5 1.5 0 0.8 0.5 1.5 1 1.5 0.6 0 1 1.6 1 3.5 0 1.9 -0.3 3.5 -0.7 3.5 -0.5 0 -2 -2 -3.5 -4.4z"
       id="path118"
       style="fill:#90a4ae;fill-opacity:1" />
    <path
       d="M223.3 280.5 c-0.7 -0.8 -1.3 -3 -1.3 -5 0 -3.3 0.2 -3.5 3.5 -3.5 2.4 0 3.5 0.5 3.5 1.5 0 2.8 3 1.6 3.7 -1.5 l0.6 -3 10.8 0 10.9 0 0 -17.5 0 -17.5 3.5 0 3.5 0 -0.2 20.8 -0.3 20.7 -11.2 0.3 c-9.4 0.2 -11.3 0.5 -11.3 1.8 0 0.9 -0.6 2.2 -1.4 3 -2 1.9 -12.6 1.8 -14.3 -0.1z"
       id="path120"
       style="fill:#90a4ae;fill-opacity:1" />
    <path
       d="M193.2 261.6 c-1.7 -3 -3.2 -5.7 -3.2 -6 0 -0.3 1.1 -0.6 2.5 -0.6 2 0 2.5 0.5 2.5 2.5 0 1.6 0.6 2.5 1.5 2.5 1 0 1.5 1.1 1.5 3.5 0 1.9 -0.3 3.5 -0.8 3.5 -0.4 0 -2.2 -2.4 -4 -5.4z"
       id="path122"
       style="fill:#90a4ae;fill-opacity:1" />
    <path
       d="M222 263.8 c0 -4.8 1.3 -6.1 6.7 -6.8 4 -0.4 4.7 -0.8 4.5 -2.4 -0.3 -1.7 0.1 -1.8 5 -1.3 2.9 0.4 7 0.7 9.1 0.7 3.6 0 3.7 0.1 3.7 3.5 l0 3.5 -6 0 -6 0 0 3 c0 2.7 -0.3 3 -3.1 3 -1.9 0 -3.7 -0.7 -4.5 -1.7 -1.2 -1.7 -1.3 -1.7 -1.9 0 -0.5 1.1 -1.8 1.7 -4.1 1.7 -3.2 0 -3.4 -0.2 -3.4 -3.2z"
       id="path124"
       style="fill:#90a4ae;fill-opacity:1" />
    <path
       d="M77.2 208.1 l-52.3 -47.6 0.4 -24.5 c0.4 -20.8 0.8 -25.8 2.6 -32.9 8.6 -33.7 34.1 -59.8 67.8 -69.6 1.9 -0.5 4.3 1.4 14.5 11.1 10.8 10.3 70 63.5 91 81.8 4.3 3.7 8.2 6.5 8.8 6.1 0.6 -0.3 1 0.3 1 1.7 0 1.6 -1.8 3.7 -6 7 -18.6 14.9 -30.1 38.4 -30.2 61.7 0 5.7 -0.5 10.2 -1.2 11 -0.9 1.2 -1.2 0.9 -1.6 -1.4 -0.5 -2.6 -1.7 -1.4 -20.1 19.1 -10.8 12.1 -20.3 22.4 -21 23 -1.1 0.9 -12.6 -9.1 -53.7 -46.5z"
       id="path126"
       style="fill:#90a4ae;fill-opacity:1" />
    <path
       d="M223.1 249.3 c-0.6 -2.1 -1.1 -5.3 -1.1 -7 0 -3.1 0.2 -3.3 3.4 -3.3 3.6 0 3.8 0.3 5.2 10 0.6 3.5 0.5 3.6 -3 3.8 -3.3 0.2 -3.6 0 -4.5 -3.5z"
       id="path128"
       style="fill:#90a4ae;fill-opacity:1" />
    <path
       d="M182.7 243.1 c-2.2 -3.8 -2.2 -4.1 0.8 -4.1 2.2 0 2.5 0.4 2.5 3.5 0 4.3 -1 4.4 -3.3 0.6z"
       id="path130"
       style="fill:#90a4ae;fill-opacity:1" />
    <path
       d="M177.6 232.1 c-0.3 -0.4 -1 -2 -1.5 -3.5 -1 -2.4 -0.8 -2.6 1.4 -2.6 2.2 0 2.5 0.4 2.5 3.5 0 3.3 -1.2 4.6 -2.4 2.6z"
       id="path132"
       style="fill:#90a4ae;fill-opacity:1" />
    <path
       d="M208.3 226.3 c-0.7 -0.2 -1.3 -1.3 -1.3 -2.4 0 -1.2 -0.7 -1.9 -1.9 -1.9 -2.1 0 -3.1 -1.9 -3.1 -6.1 0 -2.6 0.4 -2.9 3 -2.9 1.7 0 3 -0.4 3 -1 0 -1.8 5.9 -1.1 8 1 2.5 2.5 2.5 3.7 0.3 4.3 -1.6 0.4 -1.6 0.5 0.1 0.6 1.4 0.1 1.7 0.6 1.2 2.4 -0.3 1.2 -0.6 3.2 -0.6 4.5 0 1.9 -0.5 2.2 -3.7 2.1 -2.1 0 -4.4 -0.3 -5 -0.6z"
       id="path134"
       style="fill:#90a4ae;fill-opacity:1" />
    <path
       d="M173.6 220.8 c-1 -3.8 -0.7 -4.8 1.4 -4.8 1.6 0 2 0.7 2 3.5 0 4 -2.4 4.9 -3.4 1.3z"
       id="path136"
       style="fill:#90a4ae;fill-opacity:1" />
    <path
       d="M255 211.6 c0 -6.9 0.2 -7.5 2.3 -7.9 l2.2 -0.4 -2.2 -0.2 c-3.7 -0.2 -2.6 -2.1 1.2 -2.1 l3.5 0 0 9 0 9 -3.5 0 -3.5 0 0 -7.4z"
       id="path138"
       style="fill:#90a4ae;fill-opacity:1" />
    <path
       d="M205 195.5 c0 -3.3 0.2 -3.5 3.5 -3.5 3.3 0 3.4 0.1 3.3 3.5 -0.1 3.3 -0.3 3.5 -3.5 3.5 -3.1 0 -3.3 -0.2 -3.3 -3.5z"
       id="path140"
       style="fill:#90a4ae;fill-opacity:1" />
    <path
       d="M239.3 192.3 c-0.7 -0.2 -1.3 -1.1 -1.3 -1.9 0 -0.8 -0.7 -1.4 -1.5 -1.4 -1.2 0 -1.5 -1.4 -1.5 -7 0 -6.8 0.1 -7 2.5 -7 1.8 0 2.5 -0.5 2.5 -2 0 -1.8 0.7 -2 6 -2 3.3 0 6 0.4 6 1 0 0.6 0.7 1 1.5 1 0.8 0 1.5 0.9 1.5 2 0 1.1 0.5 2 1 2 0.6 0 1 2.3 1 5 0 2.8 -0.4 5 -1 5 -0.5 0 -1 0.9 -1 2 0 1.3 -0.7 2 -2 2 -1.1 0 -2 0.5 -2 1 0 1 -9.4 1.3 -11.7 0.3z m8.7 -9.7 c0 -1.4 -2.9 -3.1 -3.8 -2.1 -0.6 0.6 1.8 3.5 2.9 3.5 0.5 0 0.9 -0.6 0.9 -1.4z"
       id="path142"
       style="fill:#90a4ae;fill-opacity:1" />
    <path
       d="M261.5 190.5 c-2.1 -2 -2.5 -3.4 -2.5 -8.5 0 -4.7 0.3 -6 1.5 -6 0.8 0 1.5 -0.9 1.5 -1.9 0 -2.4 1.9 -3.1 8.1 -3.1 5.6 0 8.9 1.3 8.9 3.5 0 0.8 0.5 1.5 1 1.5 0.6 0 1 2.7 1 6 0 3.3 -0.4 6 -1 6 -0.5 0 -1 0.7 -1 1.5 0 0.8 -0.7 1.5 -1.5 1.5 -0.8 0 -1.5 0.5 -1.5 1 0 0.6 -2.7 1 -6 1 -5.1 0 -6.5 -0.4 -8.5 -2.5z"
       id="path144"
       style="fill:#90a4ae;fill-opacity:1" />
    <path
       d="M222 186.7 c0 -5.1 2.6 -14.7 4 -14.7 0.6 0 1 -0.6 1 -1.3 0 -1.6 4.2 -5.7 5.8 -5.7 0.7 0 1.2 -0.4 1.2 -1 0 -0.5 2.3 -1.7 5.1 -2.7 4 -1.4 5.4 -2.5 6.4 -5.1 2 -4.7 11.4 -8.6 10.2 -4.2 -0.3 1.1 -0.1 1.8 0.4 1.4 0.5 -0.3 0.9 -1.2 0.9 -2 0 -0.8 1 -1.4 2.3 -1.4 4.2 0 6.7 1.2 6.7 3.1 0 1.2 0.7 1.9 1.8 1.9 1.1 0 2.4 1.1 3 2.5 0.7 1.5 2 2.5 3.2 2.5 1.1 0 2 0.7 2 1.5 0 1 1 1.5 3 1.5 2.6 0 3 0.4 3 2.6 0 1.7 -0.4 2.3 -1.2 1.8 -0.7 -0.4 -0.5 0.2 0.4 1.3 1.2 1.3 2.7 1.8 4.6 1.5 2.4 -0.3 3 0.2 4.6 3.5 1 2.1 2 6.1 2.3 9 l0.6 5.3 -3.4 0 c-3.2 0 -3.5 -0.3 -5.2 -5.3 -1 -2.8 -2.1 -6.9 -2.4 -8.9 -0.5 -3.5 -0.7 -3.8 -3.9 -3.8 -2.2 0 -3.4 -0.5 -3.4 -1.4 0 -0.9 -1.7 -1.6 -4.8 -2 -3.9 -0.5 -5.1 -1.1 -6 -3.2 -0.7 -1.4 -1.2 -3.1 -1.2 -3.8 0 -2.1 -5.2 -2.7 -7.9 -0.9 -1.3 0.8 -2.8 2.7 -3.4 4.2 -0.7 1.9 -2.5 3.2 -6.7 4.9 -9.4 3.6 -16 12 -16 20.2 0 2.8 -0.3 3 -3.5 3 -3.5 0 -3.5 0 -3.5 -4.3z"
       id="path146"
       style="fill:#90a4ae;fill-opacity:1" />
    <path
       d="M253 143.4 c0 -3 0.3 -3.6 1.8 -3.2 1 0.3 2.4 -0.2 3.2 -1 1.3 -1.4 1.2 -1.5 -0.3 -0.9 -1.1 0.4 -1.7 0.1 -1.7 -0.8 0 -2.1 3.7 -1.9 5 0.3 1.1 1.6 1.1 1.6 0.6 0 -0.3 -1 -0.1 -1.8 0.4 -1.8 0.6 0 1 1.6 1 3.5 0 1.9 -0.5 3.5 -1.1 3.5 -0.5 0 -0.7 -0.6 -0.3 -1.2 0.6 -1 0.4 -1 -0.8 0 -0.9 0.7 -1.4 2.1 -1.1 3.2 0.4 1.4 0 2 -1 2 -0.9 0 -1.8 -0.8 -2 -1.7 -0.4 -1.7 -0.5 -1.7 -0.6 0 0 0.9 -0.8 1.7 -1.6 1.7 -1.1 0 -1.5 -1.1 -1.5 -3.6z"
       id="path148"
       style="fill:#90a4ae;fill-opacity:1" />
  </g>
  <g
     id="g168"
     fill="#cba445"
     style="fill:#ffab00;fill-opacity:1">
    <path
       d="M161 491.5 c0 -0.3 1.9 -2.6 4.1 -5 l4.2 -4.5 35.9 0 36 0 -4.4 5 -4.3 4.9 -35.7 0.1 c-19.7 0 -35.8 -0.2 -35.8 -0.5z"
       id="path152"
       style="fill:#ffab00;fill-opacity:1" />
    <path
       d="M272.7 409.2 c-17.8 -17.9 -19.1 -19.9 -17.6 -27.1 0.4 -1.8 1.9 -4.5 3.3 -5.9 l2.6 -2.6 -1 3.4 c-0.5 1.8 -0.8 3.5 -0.7 3.6 0.6 0.6 99.2 -110.1 99.2 -111.3 0 -1.1 -5.2 -6 -22.3 -21.1 -6 -5.2 -6.3 -5.4 -7.7 -3.6 -2.9 3.9 -1.6 -4.9 2 -13.4 4.6 -11 6.5 -19.6 6.5 -29.6 0 -15.2 -6.7 -34 -16.3 -45.9 -3.2 -3.9 -4.7 -6.6 -4.7 -8.6 0 -2.7 -0.3 -3 -3.7 -3.3 -2.8 -0.2 -4.1 -0.9 -4.8 -2.5 -0.5 -1.3 -1.8 -2.3 -2.7 -2.3 -1 0 -1.8 -0.4 -1.8 -1 0 -0.5 -0.7 -1 -1.5 -1 -0.8 0 -1.5 -0.4 -1.5 -1 0 -0.5 -0.7 -1 -1.5 -1 -0.9 0 -1.5 -0.9 -1.5 -2.5 0 -1.4 0.4 -2.5 0.8 -2.5 3.6 0 23.9 19.5 103.6 99.7 l90.6 91.1 0 33.1 c0 18.2 -0.2 33.1 -0.4 33.1 -0.3 0 -21.1 -18.5 -46.3 -41.1 l-45.8 -41.1 -3.5 3.9 c-6.5 7.1 -82.4 91.6 -93.9 104.5 -6.3 7 -11.7 12.8 -12 12.8 -0.3 0 -8.2 -7.6 -17.4 -16.8z"
       id="path154"
       style="fill:#ffab00;fill-opacity:1" />
    <path
       d="M206.3 134.9 c1.8 -1 1.7 -1.3 -1 -4.3 l-2.8 -3.1 3.1 2.8 3.2 2.9 3.8 -2.4 c2.2 -1.4 4.6 -2.7 5.4 -3 0.8 -0.4 3.2 -1.3 5.3 -2.2 l3.7 -1.6 0 2.5 c0 2.2 -0.4 2.5 -3.5 2.5 -2.4 0 -3.5 0.5 -3.5 1.5 0 0.9 -0.9 1.5 -2.5 1.5 -1.5 0 -2.5 0.6 -2.5 1.4 0 1.3 -4.2 2.6 -8.4 2.6 -2 -0.1 -2 -0.1 -0.3 -1.1z"
       id="path156"
       style="fill:#ffab00;fill-opacity:1" />
    <path
       d="M280.4 127 c-2.8 -1 -7 -2.1 -9.2 -2.5 -3.2 -0.5 -4.2 -1.1 -4.2 -2.6 0 -1 0.6 -1.9 1.3 -1.9 2.2 0 16.4 3.8 20.1 5.4 8.2 3.4 1.2 4.9 -8 1.6z"
       id="path158"
       style="fill:#ffab00;fill-opacity:1" />
    <path
       d="M233 123.7 c0 -1.7 5.2 -3.2 14.8 -4.3 5.8 -0.6 6.2 -0.5 6.2 1.3 0 1.7 -0.9 2.1 -5.7 2.6 -3.2 0.4 -7.9 1 -10.5 1.3 -3.9 0.5 -4.8 0.4 -4.8 -0.9z"
       id="path160"
       style="fill:#ffab00;fill-opacity:1" />
    <path
       d="M255 121 c0 -1.5 0.7 -2 2.8 -2 4.2 0 7.2 1.1 7.2 2.6 0 1 -1.4 1.4 -5 1.4 -4.3 0 -5 -0.3 -5 -2z"
       id="path162"
       style="fill:#ffab00;fill-opacity:1" />
    <path
       d="M119.9 54.3 l-3.4 -3.8 3.8 3.4 c3.4 3.3 4.2 4.1 3.4 4.1 -0.2 0 -1.9 -1.7 -3.8 -3.7z"
       id="path164"
       style="fill:#ffab00;fill-opacity:1" />
    <path
       d="M104 39.3 l-5.5 -5.8 5.8 5.5 c5.3 5 6.2 6 5.4 6 -0.1 0 -2.7 -2.6 -5.7 -5.7z"
       id="path166"
       style="fill:#ffab00;fill-opacity:1" />
  </g>
  <g
     id="g176"
     fill="#c70001"
     style="fill:#ff3d00;fill-opacity:1">
    <path
       d="M255.1 388 c-0.6 -2.5 -1.8 -7.2 -2.7 -10.5 -2.1 -8.2 -8.5 -26.3 -12.7 -36 -7.9 -18.3 -15 -31.1 -34.2 -61 -28.5 -44.3 -33.9 -57 -33.8 -79 0.2 -22.3 7.9 -40.9 23.8 -57 16.4 -16.7 36.2 -24.8 60.5 -24.7 27.2 0 49.6 10.6 66.3 31.2 11.8 14.6 17.8 31.6 17.8 50.5 0.1 22.1 -6.1 36.9 -32.1 77.5 -30.6 47.6 -42.5 73 -50.3 107.5 l-1.4 6 -1.2 -4.5z m-22.1 -118.5 c0 -4.7 -1.9 -7.2 -3.8 -5.3 -0.7 0.7 -1.2 3 -1.2 5.3 0 2.3 0.5 4.6 1.2 5.3 1.9 1.9 3.8 -0.6 3.8 -5.3z m25.8 -14.7 l-0.3 -18.3 -0.2 17.7 -0.3 17.7 -8.3 0.4 -8.2 0.3 8.8 0.2 8.7 0.2 -0.2 -18.2z m-3.1 -19.8 l-0.2 -29 -13.7 0 -13.8 0 0 7 0 7 -6.7 0.2 -6.8 0.2 6.8 0.3 6.7 0.4 0 10.1 c0 8.2 0.4 11 2.1 14.4 2.7 5.6 7.3 8.4 14.9 9.1 l6 0.6 0 4.3 c0 4 0.2 4.4 2.5 4.4 l2.4 0 -0.2 -29z m-9.4 22.3 c-1.3 -0.2 -3.5 -0.2 -5 0 -1.6 0.2 -0.5 0.4 2.2 0.4 2.8 0 4 -0.2 2.8 -0.4z m-23.5 -40 c-1.5 -0.2 -4.2 -0.2 -6 0 -1.8 0.2 -0.6 0.4 2.7 0.4 3.3 0 4.8 -0.2 3.3 -0.4z m36.2 -7.8 l0 -6.5 -17.2 0.2 -17.3 0.2 16.8 0.3 16.7 0.3 0 6 c0 3.3 0.2 6 0.5 6 0.3 0 0.5 -2.9 0.5 -6.5z m31.6 -16.8 l0.1 -4.7 -0.4 4.5 -0.4 4.5 -32.7 0.3 -32.7 0.2 33 0 33 0 0.1 -4.8z m-3.4 -2.7 c-0.7 -10.6 -9 -21.5 -18.2 -24 -2.7 -0.7 -4 -1.9 -5.3 -4.5 -1.8 -3.7 -5.8 -5.5 -8.6 -3.8 -0.9 0.5 -2.5 2.5 -3.5 4.5 -1.5 2.6 -2.9 3.7 -6 4.6 -5.2 1.4 -12 7.2 -14.7 12.5 -1.2 2.2 -2.4 6.7 -2.7 9.9 l-0.5 5.8 29.9 -0.2 29.9 -0.3 -0.3 -4.5z m-54.2 -19.5 c1.9 -1.9 3.2 -3.5 2.9 -3.5 -0.3 0 -2 1.6 -3.9 3.5 -1.9 1.9 -3.2 3.5 -2.9 3.5 0.3 0 2 -1.6 3.9 -3.5z m23.9 -22.2 c-0.1 -6.2 -0.6 -5.6 -1.1 1.5 -0.2 2.3 0 4.2 0.4 4.2 0.5 0 0.7 -2.6 0.7 -5.7z"
       id="path170"
       style="fill:#ff3d00;fill-opacity:1" />
    <path
       d="M237.1 189.4 c-2.8 -3.6 -2.9 -11.2 -0.1 -14.7 2.6 -3.2 7.9 -4.4 13.1 -2.8 4.8 1.4 5.9 3.4 5.9 10.5 0 7.8 -1.9 9.6 -10.4 9.6 -5.8 0 -6.7 -0.3 -8.5 -2.6z"
       id="path172"
       style="fill:#ff3d00;fill-opacity:1" />
    <path
       d="M261.5 190 c-1.1 -1.2 -2 -4.1 -2.3 -7.3 -0.4 -4.6 -0.1 -5.7 2.1 -8.3 2.3 -2.6 3.1 -2.9 8.5 -2.9 8.5 0.1 10.2 1.8 10.2 10.2 0 5 -0.4 6.7 -2 8.3 -2.9 2.9 -13.9 2.9 -16.5 0z m11.9 -0.8 c0.2 -0.4 -1.1 -0.6 -3 -0.4 -1.9 0.2 -3.4 0.6 -3.4 0.8 0 0.8 5.9 0.4 6.4 -0.4z m4.4 -7.8 c-0.3 -2.7 -0.4 -2.6 -0.9 0.8 -0.3 2.2 -0.1 3.4 0.4 2.9 0.5 -0.5 0.7 -2.1 0.5 -3.7z"
       id="path174"
       style="fill:#ff3d00;fill-opacity:1" />
  </g>
  <g
     fill="#1b161c"
     id="g188"
     style="fill:#212121;fill-opacity:1">
    <path
       d="M227.1 278.1 c-1 -0.6 -1.6 -3.2 -1.9 -7.4 -0.4 -5.6 -0.1 -6.8 1.7 -8.6 4.8 -4.8 9.1 -1.1 9.1 8.1 0 3.8 -0.5 6.2 -1.6 7.2 -1.7 1.8 -5.1 2.1 -7.3 0.7z"
       id="path178"
       style="fill:#212121;fill-opacity:1" />
    <path
       d="M248 262.1 l0 -4.9 -6.5 -0.4 c-12 -0.7 -15.6 -5.7 -16.3 -22 l-0.5 -10.8 -4.9 0 c-10 0 -14.8 -4.4 -14.8 -13.7 0 -4.7 0.1 -4.8 3 -4.8 2.9 0 3 0.1 3 4.7 0 6.3 1.7 7.8 8.6 7.8 l5.4 0 0 -7 0 -7 16.5 0 16.5 0 0 31.5 0 31.5 -5 0 -5 0 0 -4.9z"
       id="path180"
       style="fill:#212121;fill-opacity:1" />
    <path
       d="M225.4 189.3 c0.4 -4.3 1.5 -9.6 2.5 -11.8 2.3 -5.2 8.8 -10.9 14.8 -13.1 3.5 -1.2 5.2 -2.5 6.3 -4.8 0.8 -1.7 3 -3.8 4.7 -4.6 3 -1.4 3.3 -1.9 3.3 -6.2 0 -2.7 0.5 -4.8 1 -4.8 0.6 0 1 2.2 1 4.8 0 4.4 0.2 4.9 3 5.9 1.8 0.7 3.6 2.5 4.6 4.5 1.2 2.7 2.5 3.7 5.7 4.6 9.9 2.6 16.6 12.6 17.5 26 l0.5 7.2 -32.8 0 -32.8 0 0.7 -7.7z m24 -0.4 c2.9 -1.4 5.1 -5.9 4.1 -8.9 -2.8 -8.8 -15.5 -7.2 -15.5 2 0 6.2 5.5 9.6 11.4 6.9z m26 -1.5 c3.3 -3.4 3.4 -7.3 0.1 -10.8 -4.8 -5.2 -13.5 -1.7 -13.5 5.4 0 4 3.9 8 7.8 8 1.8 0 3.9 -1 5.6 -2.6z"
       id="path182"
       style="fill:#212121;fill-opacity:1" />
    <path
       d="M242.4 185.6 c-2.2 -1.8 -2.6 -2.8 -2 -5 1.5 -6.1 10.6 -5 10.6 1.3 0 5 -4.7 7.1 -8.6 3.7z m6.1 -3.6 c0 -2.8 -2.7 -3.9 -5 -2 -2.1 1.8 -0.1 5.2 2.8 4.8 1.6 -0.2 2.2 -1 2.2 -2.8z"
       id="path184"
       style="fill:#212121;fill-opacity:1" />
    <path
       d="M266.4 185.6 c-3.3 -2.8 -2.8 -6.7 1.2 -8.5 3.7 -1.6 7.4 0.8 7.4 4.8 0 5 -4.7 7.1 -8.6 3.7z m6.1 -3.6 c0 -1.8 -0.6 -2.6 -2.3 -2.8 -1.3 -0.2 -2.5 0.3 -2.8 1.2 -1 2.6 0.4 4.8 2.8 4.4 1.7 -0.2 2.3 -1 2.3 -2.8z"
       id="path186"
       style="fill:#212121;fill-opacity:1" />
  </g>
</svg>
