<svg version="1.1" xmlns="http://www.w3.org/2000/svg" xmlns:xlink="http://www.w3.org/1999/xlink" width="611.72802734375" height="305"><defs/><g><text fill="#eeeeee" stroke="none" font-family="Arial" font-size="24px" font-style="normal" font-weight="normal" text-decoration="none" x="0" y="0">UNREGISTERED</text><text fill="#eeeeee" stroke="none" font-family="Arial" font-size="24px" font-style="normal" font-weight="normal" text-decoration="none" x="0" y="30">UNREGISTERED</text><text fill="#eeeeee" stroke="none" font-family="Arial" font-size="24px" font-style="normal" font-weight="normal" text-decoration="none" x="0" y="60">UNREGISTERED</text><text fill="#eeeeee" stroke="none" font-family="Arial" font-size="24px" font-style="normal" font-weight="normal" text-decoration="none" x="0" y="90">UNREGISTERED</text><text fill="#eeeeee" stroke="none" font-family="Arial" font-size="24px" font-style="normal" font-weight="normal" text-decoration="none" x="0" y="120">UNREGISTERED</text><text fill="#eeeeee" stroke="none" font-family="Arial" font-size="24px" font-style="normal" font-weight="normal" text-decoration="none" x="0" y="150">UNREGISTERED</text><text fill="#eeeeee" stroke="none" font-family="Arial" font-size="24px" font-style="normal" font-weight="normal" text-decoration="none" x="0" y="180">UNREGISTERED</text><text fill="#eeeeee" stroke="none" font-family="Arial" font-size="24px" font-style="normal" font-weight="normal" text-decoration="none" x="0" y="210">UNREGISTERED</text><text fill="#eeeeee" stroke="none" font-family="Arial" font-size="24px" font-style="normal" font-weight="normal" text-decoration="none" x="0" y="240">UNREGISTERED</text><text fill="#eeeeee" stroke="none" font-family="Arial" font-size="24px" font-style="normal" font-weight="normal" text-decoration="none" x="0" y="270">UNREGISTERED</text><text fill="#eeeeee" stroke="none" font-family="Arial" font-size="24px" font-style="normal" font-weight="normal" text-decoration="none" x="0" y="300">UNREGISTERED</text><text fill="#eeeeee" stroke="none" font-family="Arial" font-size="24px" font-style="normal" font-weight="normal" text-decoration="none" x="200" y="0">UNREGISTERED</text><text fill="#eeeeee" stroke="none" font-family="Arial" font-size="24px" font-style="normal" font-weight="normal" text-decoration="none" x="200" y="30">UNREGISTERED</text><text fill="#eeeeee" stroke="none" font-family="Arial" font-size="24px" font-style="normal" font-weight="normal" text-decoration="none" x="200" y="60">UNREGISTERED</text><text fill="#eeeeee" stroke="none" font-family="Arial" font-size="24px" font-style="normal" font-weight="normal" text-decoration="none" x="200" y="90">UNREGISTERED</text><text fill="#eeeeee" stroke="none" font-family="Arial" font-size="24px" font-style="normal" font-weight="normal" text-decoration="none" x="200" y="120">UNREGISTERED</text><text fill="#eeeeee" stroke="none" font-family="Arial" font-size="24px" font-style="normal" font-weight="normal" text-decoration="none" x="200" y="150">UNREGISTERED</text><text fill="#eeeeee" stroke="none" font-family="Arial" font-size="24px" font-style="normal" font-weight="normal" text-decoration="none" x="200" y="180">UNREGISTERED</text><text fill="#eeeeee" stroke="none" font-family="Arial" font-size="24px" font-style="normal" font-weight="normal" text-decoration="none" x="200" y="210">UNREGISTERED</text><text fill="#eeeeee" stroke="none" font-family="Arial" font-size="24px" font-style="normal" font-weight="normal" text-decoration="none" x="200" y="240">UNREGISTERED</text><text fill="#eeeeee" stroke="none" font-family="Arial" font-size="24px" font-style="normal" font-weight="normal" text-decoration="none" x="200" y="270">UNREGISTERED</text><text fill="#eeeeee" stroke="none" font-family="Arial" font-size="24px" font-style="normal" font-weight="normal" text-decoration="none" x="200" y="300">UNREGISTERED</text><text fill="#eeeeee" stroke="none" font-family="Arial" font-size="24px" font-style="normal" font-weight="normal" text-decoration="none" x="400" y="0">UNREGISTERED</text><text fill="#eeeeee" stroke="none" font-family="Arial" font-size="24px" font-style="normal" font-weight="normal" text-decoration="none" x="400" y="30">UNREGISTERED</text><text fill="#eeeeee" stroke="none" font-family="Arial" font-size="24px" font-style="normal" font-weight="normal" text-decoration="none" x="400" y="60">UNREGISTERED</text><text fill="#eeeeee" stroke="none" font-family="Arial" font-size="24px" font-style="normal" font-weight="normal" text-decoration="none" x="400" y="90">UNREGISTERED</text><text fill="#eeeeee" stroke="none" font-family="Arial" font-size="24px" font-style="normal" font-weight="normal" text-decoration="none" x="400" y="120">UNREGISTERED</text><text fill="#eeeeee" stroke="none" font-family="Arial" font-size="24px" font-style="normal" font-weight="normal" text-decoration="none" x="400" y="150">UNREGISTERED</text><text fill="#eeeeee" stroke="none" font-family="Arial" font-size="24px" font-style="normal" font-weight="normal" text-decoration="none" x="400" y="180">UNREGISTERED</text><text fill="#eeeeee" stroke="none" font-family="Arial" font-size="24px" font-style="normal" font-weight="normal" text-decoration="none" x="400" y="210">UNREGISTERED</text><text fill="#eeeeee" stroke="none" font-family="Arial" font-size="24px" font-style="normal" font-weight="normal" text-decoration="none" x="400" y="240">UNREGISTERED</text><text fill="#eeeeee" stroke="none" font-family="Arial" font-size="24px" font-style="normal" font-weight="normal" text-decoration="none" x="400" y="270">UNREGISTERED</text><text fill="#eeeeee" stroke="none" font-family="Arial" font-size="24px" font-style="normal" font-weight="normal" text-decoration="none" x="400" y="300">UNREGISTERED</text><text fill="#eeeeee" stroke="none" font-family="Arial" font-size="24px" font-style="normal" font-weight="normal" text-decoration="none" x="600" y="0">UNREGISTERED</text><text fill="#eeeeee" stroke="none" font-family="Arial" font-size="24px" font-style="normal" font-weight="normal" text-decoration="none" x="600" y="30">UNREGISTERED</text><text fill="#eeeeee" stroke="none" font-family="Arial" font-size="24px" font-style="normal" font-weight="normal" text-decoration="none" x="600" y="60">UNREGISTERED</text><text fill="#eeeeee" stroke="none" font-family="Arial" font-size="24px" font-style="normal" font-weight="normal" text-decoration="none" x="600" y="90">UNREGISTERED</text><text fill="#eeeeee" stroke="none" font-family="Arial" font-size="24px" font-style="normal" font-weight="normal" text-decoration="none" x="600" y="120">UNREGISTERED</text><text fill="#eeeeee" stroke="none" font-family="Arial" font-size="24px" font-style="normal" font-weight="normal" text-decoration="none" x="600" y="150">UNREGISTERED</text><text fill="#eeeeee" stroke="none" font-family="Arial" font-size="24px" font-style="normal" font-weight="normal" text-decoration="none" x="600" y="180">UNREGISTERED</text><text fill="#eeeeee" stroke="none" font-family="Arial" font-size="24px" font-style="normal" font-weight="normal" text-decoration="none" x="600" y="210">UNREGISTERED</text><text fill="#eeeeee" stroke="none" font-family="Arial" font-size="24px" font-style="normal" font-weight="normal" text-decoration="none" x="600" y="240">UNREGISTERED</text><text fill="#eeeeee" stroke="none" font-family="Arial" font-size="24px" font-style="normal" font-weight="normal" text-decoration="none" x="600" y="270">UNREGISTERED</text><text fill="#eeeeee" stroke="none" font-family="Arial" font-size="24px" font-style="normal" font-weight="normal" text-decoration="none" x="600" y="300">UNREGISTERED</text><g transform="translate(-310,-190) scale(1,1)"><rect fill="#C0C0C0" stroke="none" x="343" y="415" width="86.2763671875" height="77" opacity="0.2"/></g><g transform="translate(-310,-190) scale(1,1)"><rect fill="#ffffff" stroke="none" x="336" y="408" width="86.2763671875" height="77"/></g><g transform="translate(-310,-190) scale(1,1)"><path fill="none" stroke="#000000" d="M 336 408 L 422.2763671875 408 L 422.2763671875 485 L 336 485 L 336 408 Z Z" stroke-miterlimit="10"/></g><g transform="translate(-310,-190) scale(1,1)"><path fill="none" stroke="#000000" d="M 336 433 L 422.2763671875 433" stroke-miterlimit="10"/></g><g transform="translate(-310,-190) scale(1,1)"><g><path fill="none" stroke="none"/><text fill="#000000" stroke="none" font-family="Arial" font-size="13px" font-style="normal" font-weight="bold" text-decoration="none" x="343.369140625" y="427.5">MapPosition</text></g></g><g transform="translate(-310,-190) scale(1,1)"><g><path fill="none" stroke="none"/><text fill="#000000" stroke="none" font-family="Arial" font-size="13px" font-style="normal" font-weight="normal" text-decoration="none" x="341" y="450.5">-x: double</text></g></g><g transform="translate(-310,-190) scale(1,1)"><g><path fill="none" stroke="none"/><text fill="#000000" stroke="none" font-family="Arial" font-size="13px" font-style="normal" font-weight="normal" text-decoration="none" x="341" y="465.5">-y: double</text></g></g><g transform="translate(-310,-190) scale(1,1)"><g><path fill="none" stroke="none"/><text fill="#000000" stroke="none" font-family="Arial" font-size="13px" font-style="normal" font-weight="normal" text-decoration="none" x="341" y="480.5">-z: double</text></g></g><g transform="translate(-310,-190) scale(1,1)"><rect fill="#C0C0C0" stroke="none" x="615" y="423" width="87.03173828125" height="62" opacity="0.2"/></g><g transform="translate(-310,-190) scale(1,1)"><rect fill="#ffffff" stroke="none" x="608" y="416" width="87.03173828125" height="62"/></g><g transform="translate(-310,-190) scale(1,1)"><path fill="none" stroke="#000000" d="M 608 416 L 695.03173828125 416 L 695.03173828125 478 L 608 478 L 608 416 Z Z" stroke-miterlimit="10"/></g><g transform="translate(-310,-190) scale(1,1)"><path fill="none" stroke="#000000" d="M 608 441 L 695.03173828125 441" stroke-miterlimit="10"/></g><g transform="translate(-310,-190) scale(1,1)"><g><path fill="none" stroke="none"/><text fill="#000000" stroke="none" font-family="Arial" font-size="13px" font-style="normal" font-weight="bold" text-decoration="none" x="634.17724609375" y="435.5">Room</text></g></g><g transform="translate(-310,-190) scale(1,1)"><g><path fill="none" stroke="none"/><text fill="#000000" stroke="none" font-family="Arial" font-size="13px" font-style="normal" font-weight="normal" text-decoration="none" x="613" y="458.5">-num: String</text></g></g><g transform="translate(-310,-190) scale(1,1)"><g><path fill="none" stroke="none"/><text fill="#000000" stroke="none" font-family="Arial" font-size="13px" font-style="normal" font-weight="normal" text-decoration="none" x="613" y="473.5">-name: String</text></g></g><g transform="translate(-310,-190) scale(1,1)"><rect fill="#C0C0C0" stroke="none" x="327" y="207" width="125.34619140625" height="143" opacity="0.2"/></g><g transform="translate(-310,-190) scale(1,1)"><rect fill="#ffffff" stroke="none" x="320" y="200" width="125.34619140625" height="143"/></g><g transform="translate(-310,-190) scale(1,1)"><path fill="none" stroke="#000000" d="M 320 200 L 445.34619140625 200 L 445.34619140625 343 L 320 343 L 320 200 Z Z" stroke-miterlimit="10"/></g><g transform="translate(-310,-190) scale(1,1)"><path fill="none" stroke="#000000" d="M 320 306 L 445.34619140625 306" stroke-miterlimit="10"/></g><g transform="translate(-310,-190) scale(1,1)"><path fill="none" stroke="#000000" d="M 320 238 L 445.34619140625 238" stroke-miterlimit="10"/></g><g transform="translate(-310,-190) scale(1,1)"><g><path fill="none" stroke="none"/><text fill="#000000" stroke="none" font-family="Arial" font-size="13px" font-style="normal" font-weight="normal" text-decoration="none" x="339.30908203125" y="217.5">«enumeration»</text></g></g><g transform="translate(-310,-190) scale(1,1)"><g><path fill="none" stroke="none"/><text fill="#000000" stroke="none" font-family="Arial" font-size="13px" font-style="normal" font-weight="bold" text-decoration="none" x="365.328125" y="232.5">Robot</text></g></g><g transform="translate(-310,-190) scale(1,1)"><g><path fill="none" stroke="none"/><text fill="#000000" stroke="none" font-family="Arial" font-size="13px" font-style="normal" font-weight="normal" text-decoration="none" x="325" y="323.5">#longName: String</text></g></g><g transform="translate(-310,-190) scale(1,1)"><g><path fill="none" stroke="none"/><text fill="#000000" stroke="none" font-family="Arial" font-size="13px" font-style="normal" font-weight="normal" text-decoration="none" x="325" y="338.5">#iconResId: int</text></g></g><g transform="translate(-310,-190) scale(1,1)"><g><path fill="none" stroke="none"/><text fill="#000000" stroke="none" font-family="Arial" font-size="13px" font-style="normal" font-weight="normal" text-decoration="none" x="325" y="255.5">TARTALO</text></g></g><g transform="translate(-310,-190) scale(1,1)"><g><path fill="none" stroke="none"/><text fill="#000000" stroke="none" font-family="Arial" font-size="13px" font-style="normal" font-weight="normal" text-decoration="none" x="325" y="270.5">KBOT</text></g></g><g transform="translate(-310,-190) scale(1,1)"><g><path fill="none" stroke="none"/><text fill="#000000" stroke="none" font-family="Arial" font-size="13px" font-style="normal" font-weight="normal" text-decoration="none" x="325" y="285.5">GALTXA</text></g></g><g transform="translate(-310,-190) scale(1,1)"><g><path fill="none" stroke="none"/><text fill="#000000" stroke="none" font-family="Arial" font-size="13px" font-style="normal" font-weight="normal" text-decoration="none" x="325" y="300.5">MARI</text></g></g><g transform="translate(-310,-190) scale(1,1)"><rect fill="#C0C0C0" stroke="none" x="591" y="207" width="134.39794921875" height="143" opacity="0.2"/></g><g transform="translate(-310,-190) scale(1,1)"><rect fill="#ffffff" stroke="none" x="584" y="200" width="134.39794921875" height="143"/></g><g transform="translate(-310,-190) scale(1,1)"><path fill="none" stroke="#000000" d="M 584 200 L 718.39794921875 200 L 718.39794921875 343 L 584 343 L 584 200 Z Z" stroke-miterlimit="10"/></g><g transform="translate(-310,-190) scale(1,1)"><path fill="none" stroke="#000000" d="M 584 306 L 718.39794921875 306" stroke-miterlimit="10"/></g><g transform="translate(-310,-190) scale(1,1)"><path fill="none" stroke="#000000" d="M 584 238 L 718.39794921875 238" stroke-miterlimit="10"/></g><g transform="translate(-310,-190) scale(1,1)"><g><path fill="none" stroke="none"/><text fill="#000000" stroke="none" font-family="Arial" font-size="13px" font-style="normal" font-weight="normal" text-decoration="none" x="607.8349609375" y="217.5">«enumeration»</text></g></g><g transform="translate(-310,-190) scale(1,1)"><g><path fill="none" stroke="none"/><text fill="#000000" stroke="none" font-family="Arial" font-size="13px" font-style="normal" font-weight="bold" text-decoration="none" x="636.389892578125" y="232.5">Floor</text></g></g><g transform="translate(-310,-190) scale(1,1)"><g><path fill="none" stroke="none"/><text fill="#000000" stroke="none" font-family="Arial" font-size="13px" font-style="normal" font-weight="normal" text-decoration="none" x="589" y="323.5">-x_bounds: double[2]</text></g></g><g transform="translate(-310,-190) scale(1,1)"><g><path fill="none" stroke="none"/><text fill="#000000" stroke="none" font-family="Arial" font-size="13px" font-style="normal" font-weight="normal" text-decoration="none" x="589" y="338.5">-y_bounds: double[2]</text></g></g><g transform="translate(-310,-190) scale(1,1)"><g><path fill="none" stroke="none"/><text fill="#000000" stroke="none" font-family="Arial" font-size="13px" font-style="normal" font-weight="normal" text-decoration="none" x="589" y="255.5">ZEROTH_FLOOR</text></g></g><g transform="translate(-310,-190) scale(1,1)"><g><path fill="none" stroke="none"/><text fill="#000000" stroke="none" font-family="Arial" font-size="13px" font-style="normal" font-weight="normal" text-decoration="none" x="589" y="270.5">FIRST_FLOOR</text></g></g><g transform="translate(-310,-190) scale(1,1)"><g><path fill="none" stroke="none"/><text fill="#000000" stroke="none" font-family="Arial" font-size="13px" font-style="normal" font-weight="normal" text-decoration="none" x="589" y="285.5">SECOND_FLOOR</text></g></g><g transform="translate(-310,-190) scale(1,1)"><g><path fill="none" stroke="none"/><text fill="#000000" stroke="none" font-family="Arial" font-size="13px" font-style="normal" font-weight="normal" text-decoration="none" x="589" y="300.5">THIRD_FLOOR</text></g></g><g transform="translate(-310,-190) scale(1,1)"><rect fill="#C0C0C0" stroke="none" x="823" y="271" width="95.72802734375" height="75" opacity="0.2"/></g><g transform="translate(-310,-190) scale(1,1)"><rect fill="#ffffff" stroke="none" x="816" y="264" width="95.72802734375" height="75"/></g><g transform="translate(-310,-190) scale(1,1)"><path fill="none" stroke="#000000" d="M 816 264 L 911.72802734375 264 L 911.72802734375 339 L 816 339 L 816 264 Z Z" stroke-miterlimit="10"/></g><g transform="translate(-310,-190) scale(1,1)"><path fill="none" stroke="#000000" d="M 816 302 L 911.72802734375 302" stroke-miterlimit="10"/></g><g transform="translate(-310,-190) scale(1,1)"><g><path fill="none" stroke="none"/><text fill="#000000" stroke="none" font-family="Arial" font-size="13px" font-style="normal" font-weight="normal" text-decoration="none" x="820.5" y="281.5">«enumeration»</text></g></g><g transform="translate(-310,-190) scale(1,1)"><g><path fill="none" stroke="none"/><text fill="#000000" stroke="none" font-family="Arial" font-size="13px" font-style="normal" font-weight="bold" text-decoration="none" x="851.105224609375" y="296.5">Way</text></g></g><g transform="translate(-310,-190) scale(1,1)"><g><path fill="none" stroke="none"/><text fill="#000000" stroke="none" font-family="Arial" font-size="13px" font-style="normal" font-weight="normal" text-decoration="none" x="821" y="319.5">LIFT</text></g></g><g transform="translate(-310,-190) scale(1,1)"><g><path fill="none" stroke="none"/><text fill="#000000" stroke="none" font-family="Arial" font-size="13px" font-style="normal" font-weight="normal" text-decoration="none" x="821" y="334.5">STAIRS</text></g></g><g transform="translate(-310,-190) scale(1,1)"><path fill="none" stroke="#000000" d="M 607 447 L 423 446" stroke-miterlimit="10"/></g><g transform="translate(-310,-190) scale(1,1)"><path fill="none" stroke="#000000" d="M 433.18540225021593 441.8457755234826 L 423 446 L 433.139647298157 450.2646867023238" stroke-miterlimit="10"/></g><g transform="translate(-310,-190) scale(1,1)"><g><path fill="none" stroke="none"/><text fill="#000000" stroke="none" font-family="Arial" font-size="13px" font-style="normal" font-weight="normal" text-decoration="none" x="430.5" y="467.5">+position</text></g></g><g transform="translate(-310,-190) scale(1,1)"><g><path fill="none" stroke="none"/><text fill="#000000" stroke="none" font-family="Arial" font-size="13px" font-style="normal" font-weight="normal" text-decoration="none" x="440.5" y="439.5">1</text></g></g><g transform="translate(-310,-190) scale(1,1)"><path fill="none" stroke="#000000" d="M 651 415 L 651 344" stroke-miterlimit="10"/></g><g transform="translate(-310,-190) scale(1,1)"><path fill="none" stroke="#000000" d="M 655.209517756016 354.16267485762415 L 651 344 L 646.790482243984 354.16267485762415" stroke-miterlimit="10"/></g><g transform="translate(-310,-190) scale(1,1)"><g><path fill="none" stroke="none"/><text fill="#000000" stroke="none" font-family="Arial" font-size="13px" font-style="normal" font-weight="normal" text-decoration="none" x="655.5" y="371.5">1</text></g></g><g transform="translate(-310,-190) scale(1,1)"><path fill="none" stroke="#000000" d="M 718 294 L 816 294" stroke-miterlimit="10"/></g><g transform="translate(-310,-190) scale(1,1)"><path fill="none" stroke="#000000" d="M 805.8373251423759 298.209517756016 L 816 294 L 805.8373251423758 289.790482243984" stroke-miterlimit="10"/></g><g transform="translate(-310,-190) scale(1,1)"><g><path fill="none" stroke="none"/><text fill="#000000" stroke="none" font-family="Arial" font-size="13px" font-style="normal" font-weight="normal" text-decoration="none" x="783.5" y="312.5">2..4</text></g></g><g transform="translate(-310,-190) scale(1,1)"><path fill="none" stroke="#000000" d="M 381 344 L 380 407" stroke-miterlimit="10"/></g><g transform="translate(-310,-190) scale(1,1)"><path fill="none" stroke="#000000" d="M 375.9523044249756 396.7717958305513 L 380 407 L 384.37027953829914 396.9054144831438" stroke-miterlimit="10"/></g><g transform="translate(-310,-190) scale(1,1)"><g><path fill="none" stroke="none"/><text fill="#000000" stroke="none" font-family="Arial" font-size="13px" font-style="normal" font-weight="normal" text-decoration="none" x="389.5" y="395.5">#startPosition</text></g></g><g transform="translate(-310,-190) scale(1,1)"><g><path fill="none" stroke="none"/><text fill="#000000" stroke="none" font-family="Arial" font-size="13px" font-style="normal" font-weight="normal" text-decoration="none" x="363.5" y="391.5">1</text></g></g><g transform="translate(-310,-190) scale(1,1)"><path fill="none" stroke="#000000" d="M 446 271 L 583 271" stroke-miterlimit="10"/></g><g transform="translate(-310,-190) scale(1,1)"><g><path fill="none" stroke="none"/><text fill="#000000" stroke="none" font-family="Arial" font-size="13px" font-style="normal" font-weight="normal" text-decoration="none" x="463.5" y="289.5">1</text></g></g><g transform="translate(-310,-190) scale(1,1)"><g><path fill="none" stroke="none"/><text fill="#000000" stroke="none" font-family="Arial" font-size="13px" font-style="normal" font-weight="normal" text-decoration="none" x="557.5" y="289.5">1</text></g></g></g></svg>