<svg version="1.1" xmlns="http://www.w3.org/2000/svg" xmlns:xlink="http://www.w3.org/1999/xlink" width="1316" height="476"><defs/><g><text fill="#eeeeee" stroke="none" font-family="Arial" font-size="24px" font-style="normal" font-weight="normal" text-decoration="none" x="0" y="0">UNREGISTERED</text><text fill="#eeeeee" stroke="none" font-family="Arial" font-size="24px" font-style="normal" font-weight="normal" text-decoration="none" x="0" y="30">UNREGISTERED</text><text fill="#eeeeee" stroke="none" font-family="Arial" font-size="24px" font-style="normal" font-weight="normal" text-decoration="none" x="0" y="60">UNREGISTERED</text><text fill="#eeeeee" stroke="none" font-family="Arial" font-size="24px" font-style="normal" font-weight="normal" text-decoration="none" x="0" y="90">UNREGISTERED</text><text fill="#eeeeee" stroke="none" font-family="Arial" font-size="24px" font-style="normal" font-weight="normal" text-decoration="none" x="0" y="120">UNREGISTERED</text><text fill="#eeeeee" stroke="none" font-family="Arial" font-size="24px" font-style="normal" font-weight="normal" text-decoration="none" x="0" y="150">UNREGISTERED</text><text fill="#eeeeee" stroke="none" font-family="Arial" font-size="24px" font-style="normal" font-weight="normal" text-decoration="none" x="0" y="180">UNREGISTERED</text><text fill="#eeeeee" stroke="none" font-family="Arial" font-size="24px" font-style="normal" font-weight="normal" text-decoration="none" x="0" y="210">UNREGISTERED</text><text fill="#eeeeee" stroke="none" font-family="Arial" font-size="24px" font-style="normal" font-weight="normal" text-decoration="none" x="0" y="240">UNREGISTERED</text><text fill="#eeeeee" stroke="none" font-family="Arial" font-size="24px" font-style="normal" font-weight="normal" text-decoration="none" x="0" y="270">UNREGISTERED</text><text fill="#eeeeee" stroke="none" font-family="Arial" font-size="24px" font-style="normal" font-weight="normal" text-decoration="none" x="0" y="300">UNREGISTERED</text><text fill="#eeeeee" stroke="none" font-family="Arial" font-size="24px" font-style="normal" font-weight="normal" text-decoration="none" x="0" y="330">UNREGISTERED</text><text fill="#eeeeee" stroke="none" font-family="Arial" font-size="24px" font-style="normal" font-weight="normal" text-decoration="none" x="0" y="360">UNREGISTERED</text><text fill="#eeeeee" stroke="none" font-family="Arial" font-size="24px" font-style="normal" font-weight="normal" text-decoration="none" x="0" y="390">UNREGISTERED</text><text fill="#eeeeee" stroke="none" font-family="Arial" font-size="24px" font-style="normal" font-weight="normal" text-decoration="none" x="0" y="420">UNREGISTERED</text><text fill="#eeeeee" stroke="none" font-family="Arial" font-size="24px" font-style="normal" font-weight="normal" text-decoration="none" x="0" y="450">UNREGISTERED</text><text fill="#eeeeee" stroke="none" font-family="Arial" font-size="24px" font-style="normal" font-weight="normal" text-decoration="none" x="200" y="0">UNREGISTERED</text><text fill="#eeeeee" stroke="none" font-family="Arial" font-size="24px" font-style="normal" font-weight="normal" text-decoration="none" x="200" y="30">UNREGISTERED</text><text fill="#eeeeee" stroke="none" font-family="Arial" font-size="24px" font-style="normal" font-weight="normal" text-decoration="none" x="200" y="60">UNREGISTERED</text><text fill="#eeeeee" stroke="none" font-family="Arial" font-size="24px" font-style="normal" font-weight="normal" text-decoration="none" x="200" y="90">UNREGISTERED</text><text fill="#eeeeee" stroke="none" font-family="Arial" font-size="24px" font-style="normal" font-weight="normal" text-decoration="none" x="200" y="120">UNREGISTERED</text><text fill="#eeeeee" stroke="none" font-family="Arial" font-size="24px" font-style="normal" font-weight="normal" text-decoration="none" x="200" y="150">UNREGISTERED</text><text fill="#eeeeee" stroke="none" font-family="Arial" font-size="24px" font-style="normal" font-weight="normal" text-decoration="none" x="200" y="180">UNREGISTERED</text><text fill="#eeeeee" stroke="none" font-family="Arial" font-size="24px" font-style="normal" font-weight="normal" text-decoration="none" x="200" y="210">UNREGISTERED</text><text fill="#eeeeee" stroke="none" font-family="Arial" font-size="24px" font-style="normal" font-weight="normal" text-decoration="none" x="200" y="240">UNREGISTERED</text><text fill="#eeeeee" stroke="none" font-family="Arial" font-size="24px" font-style="normal" font-weight="normal" text-decoration="none" x="200" y="270">UNREGISTERED</text><text fill="#eeeeee" stroke="none" font-family="Arial" font-size="24px" font-style="normal" font-weight="normal" text-decoration="none" x="200" y="300">UNREGISTERED</text><text fill="#eeeeee" stroke="none" font-family="Arial" font-size="24px" font-style="normal" font-weight="normal" text-decoration="none" x="200" y="330">UNREGISTERED</text><text fill="#eeeeee" stroke="none" font-family="Arial" font-size="24px" font-style="normal" font-weight="normal" text-decoration="none" x="200" y="360">UNREGISTERED</text><text fill="#eeeeee" stroke="none" font-family="Arial" font-size="24px" font-style="normal" font-weight="normal" text-decoration="none" x="200" y="390">UNREGISTERED</text><text fill="#eeeeee" stroke="none" font-family="Arial" font-size="24px" font-style="normal" font-weight="normal" text-decoration="none" x="200" y="420">UNREGISTERED</text><text fill="#eeeeee" stroke="none" font-family="Arial" font-size="24px" font-style="normal" font-weight="normal" text-decoration="none" x="200" y="450">UNREGISTERED</text><text fill="#eeeeee" stroke="none" font-family="Arial" font-size="24px" font-style="normal" font-weight="normal" text-decoration="none" x="400" y="0">UNREGISTERED</text><text fill="#eeeeee" stroke="none" font-family="Arial" font-size="24px" font-style="normal" font-weight="normal" text-decoration="none" x="400" y="30">UNREGISTERED</text><text fill="#eeeeee" stroke="none" font-family="Arial" font-size="24px" font-style="normal" font-weight="normal" text-decoration="none" x="400" y="60">UNREGISTERED</text><text fill="#eeeeee" stroke="none" font-family="Arial" font-size="24px" font-style="normal" font-weight="normal" text-decoration="none" x="400" y="90">UNREGISTERED</text><text fill="#eeeeee" stroke="none" font-family="Arial" font-size="24px" font-style="normal" font-weight="normal" text-decoration="none" x="400" y="120">UNREGISTERED</text><text fill="#eeeeee" stroke="none" font-family="Arial" font-size="24px" font-style="normal" font-weight="normal" text-decoration="none" x="400" y="150">UNREGISTERED</text><text fill="#eeeeee" stroke="none" font-family="Arial" font-size="24px" font-style="normal" font-weight="normal" text-decoration="none" x="400" y="180">UNREGISTERED</text><text fill="#eeeeee" stroke="none" font-family="Arial" font-size="24px" font-style="normal" font-weight="normal" text-decoration="none" x="400" y="210">UNREGISTERED</text><text fill="#eeeeee" stroke="none" font-family="Arial" font-size="24px" font-style="normal" font-weight="normal" text-decoration="none" x="400" y="240">UNREGISTERED</text><text fill="#eeeeee" stroke="none" font-family="Arial" font-size="24px" font-style="normal" font-weight="normal" text-decoration="none" x="400" y="270">UNREGISTERED</text><text fill="#eeeeee" stroke="none" font-family="Arial" font-size="24px" font-style="normal" font-weight="normal" text-decoration="none" x="400" y="300">UNREGISTERED</text><text fill="#eeeeee" stroke="none" font-family="Arial" font-size="24px" font-style="normal" font-weight="normal" text-decoration="none" x="400" y="330">UNREGISTERED</text><text fill="#eeeeee" stroke="none" font-family="Arial" font-size="24px" font-style="normal" font-weight="normal" text-decoration="none" x="400" y="360">UNREGISTERED</text><text fill="#eeeeee" stroke="none" font-family="Arial" font-size="24px" font-style="normal" font-weight="normal" text-decoration="none" x="400" y="390">UNREGISTERED</text><text fill="#eeeeee" stroke="none" font-family="Arial" font-size="24px" font-style="normal" font-weight="normal" text-decoration="none" x="400" y="420">UNREGISTERED</text><text fill="#eeeeee" stroke="none" font-family="Arial" font-size="24px" font-style="normal" font-weight="normal" text-decoration="none" x="400" y="450">UNREGISTERED</text><text fill="#eeeeee" stroke="none" font-family="Arial" font-size="24px" font-style="normal" font-weight="normal" text-decoration="none" x="600" y="0">UNREGISTERED</text><text fill="#eeeeee" stroke="none" font-family="Arial" font-size="24px" font-style="normal" font-weight="normal" text-decoration="none" x="600" y="30">UNREGISTERED</text><text fill="#eeeeee" stroke="none" font-family="Arial" font-size="24px" font-style="normal" font-weight="normal" text-decoration="none" x="600" y="60">UNREGISTERED</text><text fill="#eeeeee" stroke="none" font-family="Arial" font-size="24px" font-style="normal" font-weight="normal" text-decoration="none" x="600" y="90">UNREGISTERED</text><text fill="#eeeeee" stroke="none" font-family="Arial" font-size="24px" font-style="normal" font-weight="normal" text-decoration="none" x="600" y="120">UNREGISTERED</text><text fill="#eeeeee" stroke="none" font-family="Arial" font-size="24px" font-style="normal" font-weight="normal" text-decoration="none" x="600" y="150">UNREGISTERED</text><text fill="#eeeeee" stroke="none" font-family="Arial" font-size="24px" font-style="normal" font-weight="normal" text-decoration="none" x="600" y="180">UNREGISTERED</text><text fill="#eeeeee" stroke="none" font-family="Arial" font-size="24px" font-style="normal" font-weight="normal" text-decoration="none" x="600" y="210">UNREGISTERED</text><text fill="#eeeeee" stroke="none" font-family="Arial" font-size="24px" font-style="normal" font-weight="normal" text-decoration="none" x="600" y="240">UNREGISTERED</text><text fill="#eeeeee" stroke="none" font-family="Arial" font-size="24px" font-style="normal" font-weight="normal" text-decoration="none" x="600" y="270">UNREGISTERED</text><text fill="#eeeeee" stroke="none" font-family="Arial" font-size="24px" font-style="normal" font-weight="normal" text-decoration="none" x="600" y="300">UNREGISTERED</text><text fill="#eeeeee" stroke="none" font-family="Arial" font-size="24px" font-style="normal" font-weight="normal" text-decoration="none" x="600" y="330">UNREGISTERED</text><text fill="#eeeeee" stroke="none" font-family="Arial" font-size="24px" font-style="normal" font-weight="normal" text-decoration="none" x="600" y="360">UNREGISTERED</text><text fill="#eeeeee" stroke="none" font-family="Arial" font-size="24px" font-style="normal" font-weight="normal" text-decoration="none" x="600" y="390">UNREGISTERED</text><text fill="#eeeeee" stroke="none" font-family="Arial" font-size="24px" font-style="normal" font-weight="normal" text-decoration="none" x="600" y="420">UNREGISTERED</text><text fill="#eeeeee" stroke="none" font-family="Arial" font-size="24px" font-style="normal" font-weight="normal" text-decoration="none" x="600" y="450">UNREGISTERED</text><text fill="#eeeeee" stroke="none" font-family="Arial" font-size="24px" font-style="normal" font-weight="normal" text-decoration="none" x="800" y="0">UNREGISTERED</text><text fill="#eeeeee" stroke="none" font-family="Arial" font-size="24px" font-style="normal" font-weight="normal" text-decoration="none" x="800" y="30">UNREGISTERED</text><text fill="#eeeeee" stroke="none" font-family="Arial" font-size="24px" font-style="normal" font-weight="normal" text-decoration="none" x="800" y="60">UNREGISTERED</text><text fill="#eeeeee" stroke="none" font-family="Arial" font-size="24px" font-style="normal" font-weight="normal" text-decoration="none" x="800" y="90">UNREGISTERED</text><text fill="#eeeeee" stroke="none" font-family="Arial" font-size="24px" font-style="normal" font-weight="normal" text-decoration="none" x="800" y="120">UNREGISTERED</text><text fill="#eeeeee" stroke="none" font-family="Arial" font-size="24px" font-style="normal" font-weight="normal" text-decoration="none" x="800" y="150">UNREGISTERED</text><text fill="#eeeeee" stroke="none" font-family="Arial" font-size="24px" font-style="normal" font-weight="normal" text-decoration="none" x="800" y="180">UNREGISTERED</text><text fill="#eeeeee" stroke="none" font-family="Arial" font-size="24px" font-style="normal" font-weight="normal" text-decoration="none" x="800" y="210">UNREGISTERED</text><text fill="#eeeeee" stroke="none" font-family="Arial" font-size="24px" font-style="normal" font-weight="normal" text-decoration="none" x="800" y="240">UNREGISTERED</text><text fill="#eeeeee" stroke="none" font-family="Arial" font-size="24px" font-style="normal" font-weight="normal" text-decoration="none" x="800" y="270">UNREGISTERED</text><text fill="#eeeeee" stroke="none" font-family="Arial" font-size="24px" font-style="normal" font-weight="normal" text-decoration="none" x="800" y="300">UNREGISTERED</text><text fill="#eeeeee" stroke="none" font-family="Arial" font-size="24px" font-style="normal" font-weight="normal" text-decoration="none" x="800" y="330">UNREGISTERED</text><text fill="#eeeeee" stroke="none" font-family="Arial" font-size="24px" font-style="normal" font-weight="normal" text-decoration="none" x="800" y="360">UNREGISTERED</text><text fill="#eeeeee" stroke="none" font-family="Arial" font-size="24px" font-style="normal" font-weight="normal" text-decoration="none" x="800" y="390">UNREGISTERED</text><text fill="#eeeeee" stroke="none" font-family="Arial" font-size="24px" font-style="normal" font-weight="normal" text-decoration="none" x="800" y="420">UNREGISTERED</text><text fill="#eeeeee" stroke="none" font-family="Arial" font-size="24px" font-style="normal" font-weight="normal" text-decoration="none" x="800" y="450">UNREGISTERED</text><text fill="#eeeeee" stroke="none" font-family="Arial" font-size="24px" font-style="normal" font-weight="normal" text-decoration="none" x="1000" y="0">UNREGISTERED</text><text fill="#eeeeee" stroke="none" font-family="Arial" font-size="24px" font-style="normal" font-weight="normal" text-decoration="none" x="1000" y="30">UNREGISTERED</text><text fill="#eeeeee" stroke="none" font-family="Arial" font-size="24px" font-style="normal" font-weight="normal" text-decoration="none" x="1000" y="60">UNREGISTERED</text><text fill="#eeeeee" stroke="none" font-family="Arial" font-size="24px" font-style="normal" font-weight="normal" text-decoration="none" x="1000" y="90">UNREGISTERED</text><text fill="#eeeeee" stroke="none" font-family="Arial" font-size="24px" font-style="normal" font-weight="normal" text-decoration="none" x="1000" y="120">UNREGISTERED</text><text fill="#eeeeee" stroke="none" font-family="Arial" font-size="24px" font-style="normal" font-weight="normal" text-decoration="none" x="1000" y="150">UNREGISTERED</text><text fill="#eeeeee" stroke="none" font-family="Arial" font-size="24px" font-style="normal" font-weight="normal" text-decoration="none" x="1000" y="180">UNREGISTERED</text><text fill="#eeeeee" stroke="none" font-family="Arial" font-size="24px" font-style="normal" font-weight="normal" text-decoration="none" x="1000" y="210">UNREGISTERED</text><text fill="#eeeeee" stroke="none" font-family="Arial" font-size="24px" font-style="normal" font-weight="normal" text-decoration="none" x="1000" y="240">UNREGISTERED</text><text fill="#eeeeee" stroke="none" font-family="Arial" font-size="24px" font-style="normal" font-weight="normal" text-decoration="none" x="1000" y="270">UNREGISTERED</text><text fill="#eeeeee" stroke="none" font-family="Arial" font-size="24px" font-style="normal" font-weight="normal" text-decoration="none" x="1000" y="300">UNREGISTERED</text><text fill="#eeeeee" stroke="none" font-family="Arial" font-size="24px" font-style="normal" font-weight="normal" text-decoration="none" x="1000" y="330">UNREGISTERED</text><text fill="#eeeeee" stroke="none" font-family="Arial" font-size="24px" font-style="normal" font-weight="normal" text-decoration="none" x="1000" y="360">UNREGISTERED</text><text fill="#eeeeee" stroke="none" font-family="Arial" font-size="24px" font-style="normal" font-weight="normal" text-decoration="none" x="1000" y="390">UNREGISTERED</text><text fill="#eeeeee" stroke="none" font-family="Arial" font-size="24px" font-style="normal" font-weight="normal" text-decoration="none" x="1000" y="420">UNREGISTERED</text><text fill="#eeeeee" stroke="none" font-family="Arial" font-size="24px" font-style="normal" font-weight="normal" text-decoration="none" x="1000" y="450">UNREGISTERED</text><text fill="#eeeeee" stroke="none" font-family="Arial" font-size="24px" font-style="normal" font-weight="normal" text-decoration="none" x="1200" y="0">UNREGISTERED</text><text fill="#eeeeee" stroke="none" font-family="Arial" font-size="24px" font-style="normal" font-weight="normal" text-decoration="none" x="1200" y="30">UNREGISTERED</text><text fill="#eeeeee" stroke="none" font-family="Arial" font-size="24px" font-style="normal" font-weight="normal" text-decoration="none" x="1200" y="60">UNREGISTERED</text><text fill="#eeeeee" stroke="none" font-family="Arial" font-size="24px" font-style="normal" font-weight="normal" text-decoration="none" x="1200" y="90">UNREGISTERED</text><text fill="#eeeeee" stroke="none" font-family="Arial" font-size="24px" font-style="normal" font-weight="normal" text-decoration="none" x="1200" y="120">UNREGISTERED</text><text fill="#eeeeee" stroke="none" font-family="Arial" font-size="24px" font-style="normal" font-weight="normal" text-decoration="none" x="1200" y="150">UNREGISTERED</text><text fill="#eeeeee" stroke="none" font-family="Arial" font-size="24px" font-style="normal" font-weight="normal" text-decoration="none" x="1200" y="180">UNREGISTERED</text><text fill="#eeeeee" stroke="none" font-family="Arial" font-size="24px" font-style="normal" font-weight="normal" text-decoration="none" x="1200" y="210">UNREGISTERED</text><text fill="#eeeeee" stroke="none" font-family="Arial" font-size="24px" font-style="normal" font-weight="normal" text-decoration="none" x="1200" y="240">UNREGISTERED</text><text fill="#eeeeee" stroke="none" font-family="Arial" font-size="24px" font-style="normal" font-weight="normal" text-decoration="none" x="1200" y="270">UNREGISTERED</text><text fill="#eeeeee" stroke="none" font-family="Arial" font-size="24px" font-style="normal" font-weight="normal" text-decoration="none" x="1200" y="300">UNREGISTERED</text><text fill="#eeeeee" stroke="none" font-family="Arial" font-size="24px" font-style="normal" font-weight="normal" text-decoration="none" x="1200" y="330">UNREGISTERED</text><text fill="#eeeeee" stroke="none" font-family="Arial" font-size="24px" font-style="normal" font-weight="normal" text-decoration="none" x="1200" y="360">UNREGISTERED</text><text fill="#eeeeee" stroke="none" font-family="Arial" font-size="24px" font-style="normal" font-weight="normal" text-decoration="none" x="1200" y="390">UNREGISTERED</text><text fill="#eeeeee" stroke="none" font-family="Arial" font-size="24px" font-style="normal" font-weight="normal" text-decoration="none" x="1200" y="420">UNREGISTERED</text><text fill="#eeeeee" stroke="none" font-family="Arial" font-size="24px" font-style="normal" font-weight="normal" text-decoration="none" x="1200" y="450">UNREGISTERED</text><g transform="translate(-62,10) scale(1,1)"><path fill="none" stroke="#000000" d="M 72 0 L 1368 0 L 1368 456 L 72 456 L 72 0" stroke-miterlimit="10"/></g><g transform="translate(-62,10) scale(1,1)"><path fill="#ffffff" stroke="none" d="M 72 0 L 72 22 L 187.0107421875 22 L 198.0107421875 11 L 198.0107421875 0 L 72 0"/></g><g transform="translate(-62,10) scale(1,1)"><path fill="none" stroke="#000000" d="M 72 0 L 72 22 L 187.0107421875 22 L 198.0107421875 11 L 198.0107421875 0 L 72 0 L 72 0" stroke-miterlimit="10"/></g><g transform="translate(-62,10) scale(1,1)"><g><path fill="none" stroke="none"/><text fill="#000000" stroke="none" font-family="Arial" font-size="13px" font-style="normal" font-weight="normal" text-decoration="none" x="96.72998046875" y="17.5">bidaiaEzeztatu</text></g></g><g transform="translate(-62,10) scale(1,1)"><g><path fill="none" stroke="none"/><text fill="#000000" stroke="none" font-family="Arial" font-size="13px" font-style="normal" font-weight="bold" text-decoration="none" x="77" y="17.5">sd</text></g></g><g transform="translate(-62,10) scale(1,1)"><path fill="#ffffff" stroke="none" d="M 146.3431258877841 47.3 C 146.3431258877841 43.82060576 149.2215276099659 41 152.772216796875 41 C 156.3229059837841 41 159.20130770596592 43.82060576 159.20130770596592 47.3 C 159.20130770596592 50.779394239999995 156.3229059837841 53.6 152.772216796875 53.6 C 149.2215276099659 53.6 146.3431258877841 50.779394239999995 146.3431258877841 47.3 Z"/></g><g transform="translate(-62,10) scale(1,1)"><path fill="none" stroke="#000000" d="M 146.3431258877841 47.3 C 146.3431258877841 43.82060576 149.2215276099659 41 152.772216796875 41 C 156.3229059837841 41 159.20130770596592 43.82060576 159.20130770596592 47.3 C 159.20130770596592 50.779394239999995 156.3229059837841 53.6 152.772216796875 53.6 C 149.2215276099659 53.6 146.3431258877841 50.779394239999995 146.3431258877841 47.3 Z" stroke-miterlimit="10"/></g><g transform="translate(-62,10) scale(1,1)"><path fill="none" stroke="#000000" d="M 152.772216796875 53.6 L 152.772216796875 66.4" stroke-miterlimit="10"/></g><g transform="translate(-62,10) scale(1,1)"><path fill="none" stroke="#000000" d="M 145.9649440696023 58.4 L 159.57948952414773 58.4" stroke-miterlimit="10"/></g><g transform="translate(-62,10) scale(1,1)"><path fill="none" stroke="#000000" d="M 152.772216796875 66.4 L 143.31767134232956 79" stroke-miterlimit="10"/></g><g transform="translate(-62,10) scale(1,1)"><path fill="none" stroke="#000000" d="M 152.772216796875 66.4 L 162.22676225142047 79" stroke-miterlimit="10"/></g><g transform="translate(-62,10) scale(1,1)"><g><path fill="none" stroke="none"/><text fill="#000000" stroke="none" font-family="Arial" font-size="13px" font-style="normal" font-weight="bold" text-decoration="none" x="101.108642578125" y="99.5">user: Erabiltzailea</text></g></g><g transform="translate(-62,10) scale(1,1)"><path fill="none" stroke="#000000" d="M 153.5 105 L 153.5 440" stroke-miterlimit="10" stroke-dasharray="3"/></g><g transform="translate(-62,10) scale(1,1)"><path fill="#ffffff" stroke="none" d="M 1271.179551669034 47.3 C 1271.179551669034 43.82060576 1274.057953391216 41 1277.608642578125 41 C 1281.159331765034 41 1284.037733487216 43.82060576 1284.037733487216 47.3 C 1284.037733487216 50.779394239999995 1281.159331765034 53.6 1277.608642578125 53.6 C 1274.057953391216 53.6 1271.179551669034 50.779394239999995 1271.179551669034 47.3 Z"/></g><g transform="translate(-62,10) scale(1,1)"><path fill="none" stroke="#000000" d="M 1271.179551669034 47.3 C 1271.179551669034 43.82060576 1274.057953391216 41 1277.608642578125 41 C 1281.159331765034 41 1284.037733487216 43.82060576 1284.037733487216 47.3 C 1284.037733487216 50.779394239999995 1281.159331765034 53.6 1277.608642578125 53.6 C 1274.057953391216 53.6 1271.179551669034 50.779394239999995 1271.179551669034 47.3 Z" stroke-miterlimit="10"/></g><g transform="translate(-62,10) scale(1,1)"><path fill="none" stroke="#000000" d="M 1277.608642578125 53.6 L 1277.608642578125 66.4" stroke-miterlimit="10"/></g><g transform="translate(-62,10) scale(1,1)"><path fill="none" stroke="#000000" d="M 1270.8013698508523 58.4 L 1284.4159153053977 58.4" stroke-miterlimit="10"/></g><g transform="translate(-62,10) scale(1,1)"><path fill="none" stroke="#000000" d="M 1277.608642578125 66.4 L 1268.1540971235795 79" stroke-miterlimit="10"/></g><g transform="translate(-62,10) scale(1,1)"><path fill="none" stroke="#000000" d="M 1277.608642578125 66.4 L 1287.0631880326705 79" stroke-miterlimit="10"/></g><g transform="translate(-62,10) scale(1,1)"><g><path fill="none" stroke="none"/><text fill="#000000" stroke="none" font-family="Arial" font-size="13px" font-style="normal" font-weight="bold" text-decoration="none" x="1236.786865234375" y="99.5">master: Robot</text></g></g><g transform="translate(-62,10) scale(1,1)"><path fill="none" stroke="#000000" d="M 1278.5 105 L 1278.5 432" stroke-miterlimit="10" stroke-dasharray="3"/></g><g transform="translate(-62,10) scale(1,1)"><rect fill="#C0C0C0" stroke="none" x="271" y="47" width="201.76806640625" height="39" opacity="0.2"/></g><g transform="translate(-62,10) scale(1,1)"><rect fill="#ffffff" stroke="none" x="264" y="40" width="201.76806640625" height="39"/></g><g transform="translate(-62,10) scale(1,1)"><path fill="none" stroke="#000000" d="M 264 40 L 465.76806640625 40 L 465.76806640625 79 L 264 79 L 264 40 Z Z" stroke-miterlimit="10"/></g><g transform="translate(-62,10) scale(1,1)"><g><path fill="none" stroke="none"/><text fill="#000000" stroke="none" font-family="Arial" font-size="13px" font-style="normal" font-weight="bold" text-decoration="none" x="281.063232421875" y="59.5">Lifeline1: RouteSelectActivity</text></g></g><g transform="translate(-62,10) scale(1,1)"><path fill="none" stroke="#000000" d="M 365.5 80 L 365.5 442" stroke-miterlimit="10" stroke-dasharray="3"/></g><g transform="translate(-62,10) scale(1,1)"><rect fill="#C0C0C0" stroke="none" x="567" y="47" width="172.61962890625" height="39" opacity="0.2"/></g><g transform="translate(-62,10) scale(1,1)"><rect fill="#ffffff" stroke="none" x="560" y="40" width="172.61962890625" height="39"/></g><g transform="translate(-62,10) scale(1,1)"><path fill="none" stroke="#000000" d="M 560 40 L 732.61962890625 40 L 732.61962890625 79 L 560 79 L 560 40 Z Z" stroke-miterlimit="10"/></g><g transform="translate(-62,10) scale(1,1)"><g><path fill="none" stroke="none"/><text fill="#000000" stroke="none" font-family="Arial" font-size="13px" font-style="normal" font-weight="bold" text-decoration="none" x="574.16552734375" y="59.5">Lifeline2: MapViewModel</text></g></g><g transform="translate(-62,10) scale(1,1)"><path fill="none" stroke="#000000" d="M 647.5 80 L 647.5 432" stroke-miterlimit="10" stroke-dasharray="3"/></g><g transform="translate(-62,10) scale(1,1)"><rect fill="#C0C0C0" stroke="none" x="807" y="47" width="147.578125" height="39" opacity="0.2"/></g><g transform="translate(-62,10) scale(1,1)"><rect fill="#ffffff" stroke="none" x="800" y="40" width="147.578125" height="39"/></g><g transform="translate(-62,10) scale(1,1)"><path fill="none" stroke="#000000" d="M 800 40 L 947.578125 40 L 947.578125 79 L 800 79 L 800 40 Z Z" stroke-miterlimit="10"/></g><g transform="translate(-62,10) scale(1,1)"><g><path fill="none" stroke="none"/><text fill="#000000" stroke="none" font-family="Arial" font-size="13px" font-style="normal" font-weight="bold" text-decoration="none" x="814.8955078125" y="59.5">Lifeline3: Repository</text></g></g><g transform="translate(-62,10) scale(1,1)"><path fill="none" stroke="#000000" d="M 874.5 80 L 874.5 432" stroke-miterlimit="10" stroke-dasharray="3"/></g><g transform="translate(-62,10) scale(1,1)"><rect fill="#C0C0C0" stroke="none" x="1015" y="47" width="122.2890625" height="39" opacity="0.2"/></g><g transform="translate(-62,10) scale(1,1)"><rect fill="#ffffff" stroke="none" x="1008" y="40" width="122.2890625" height="39"/></g><g transform="translate(-62,10) scale(1,1)"><path fill="none" stroke="#000000" d="M 1008 40 L 1130.2890625 40 L 1130.2890625 79 L 1008 79 L 1008 40 Z Z" stroke-miterlimit="10"/></g><g transform="translate(-62,10) scale(1,1)"><g><path fill="none" stroke="none"/><text fill="#000000" stroke="none" font-family="Arial" font-size="13px" font-style="normal" font-weight="bold" text-decoration="none" x="1020.724609375" y="59.5">Lifeline4: QNode</text></g></g><g transform="translate(-62,10) scale(1,1)"><path fill="none" stroke="#000000" d="M 1070.5 80 L 1070.5 432" stroke-miterlimit="10" stroke-dasharray="3"/></g><g transform="translate(-62,10) scale(1,1)"><path fill="none" stroke="#000000" d="M 153 136 L 358 136" stroke-miterlimit="10"/></g><g transform="translate(-62,10) scale(1,1)"><path fill="none" stroke="#000000" d="M 347.83732514237585 140.209517756016 L 358 136 L 347.83732514237585 131.790482243984" stroke-miterlimit="10"/></g><g transform="translate(-62,10) scale(1,1)"><g><path fill="none" stroke="none"/><text fill="#000000" stroke="none" font-family="Arial" font-size="13px" font-style="normal" font-weight="normal" text-decoration="none" x="202.5" y="132.5">1 : bidaia ezeztatu</text></g></g><g transform="translate(-62,10) scale(1,1)"><rect fill="#ffffff" stroke="none" x="358" y="136" width="13" height="40"/></g><g transform="translate(-62,10) scale(1,1)"><path fill="none" stroke="#000000" d="M 358 136 L 371 136 L 371 176 L 358 176 L 358 136 Z Z" stroke-miterlimit="10"/></g><g transform="translate(-62,10) scale(1,1)"><path fill="none" stroke="#000000" d="M 371 161 L 640 161" stroke-miterlimit="10"/></g><g transform="translate(-62,10) scale(1,1)"><path fill="none" stroke="#000000" d="M 629.8373251423759 165.209517756016 L 640 161 L 629.8373251423758 156.790482243984" stroke-miterlimit="10"/></g><g transform="translate(-62,10) scale(1,1)"><g><path fill="none" stroke="none"/><text fill="#000000" stroke="none" font-family="Arial" font-size="13px" font-style="normal" font-weight="normal" text-decoration="none" x="450.5" y="157.5">2 : publishCancel()</text></g></g><g transform="translate(-62,10) scale(1,1)"><rect fill="#ffffff" stroke="none" x="640" y="161" width="13" height="28"/></g><g transform="translate(-62,10) scale(1,1)"><path fill="none" stroke="#000000" d="M 640 161 L 653 161 L 653 189 L 640 189 L 640 161 Z Z" stroke-miterlimit="10"/></g><g transform="translate(-62,10) scale(1,1)"><path fill="none" stroke="#000000" d="M 653 176 L 867 176" stroke-miterlimit="10"/></g><g transform="translate(-62,10) scale(1,1)"><path fill="none" stroke="#000000" d="M 856.8373251423759 180.209517756016 L 867 176 L 856.8373251423758 171.790482243984" stroke-miterlimit="10"/></g><g transform="translate(-62,10) scale(1,1)"><g><path fill="none" stroke="none"/><text fill="#000000" stroke="none" font-family="Arial" font-size="13px" font-style="normal" font-weight="normal" text-decoration="none" x="705.5" y="172.5">3 : publishCancel()</text></g></g><g transform="translate(-62,10) scale(1,1)"><rect fill="#ffffff" stroke="none" x="867" y="176" width="13" height="232"/></g><g transform="translate(-62,10) scale(1,1)"><path fill="none" stroke="#000000" d="M 867 176 L 880 176 L 880 408 L 867 408 L 867 176 Z Z" stroke-miterlimit="10"/></g><g transform="translate(-62,10) scale(1,1)"><path fill="none" stroke="#000000" d="M 880 186 L 1063 186" stroke-miterlimit="10"/></g><g transform="translate(-62,10) scale(1,1)"><path fill="#000000" stroke="none" d="M 1052.837325142376 190.209517756016 L 1063 186 L 1052.837325142376 181.790482243984"/></g><g transform="translate(-62,10) scale(1,1)"><path fill="none" stroke="#000000" d="M 1052.837325142376 190.209517756016 L 1063 186 L 1052.837325142376 181.790482243984 L 1052.837325142376 190.209517756016" stroke-miterlimit="10"/></g><g transform="translate(-62,10) scale(1,1)"><g><path fill="none" stroke="none"/><text fill="#000000" stroke="none" font-family="Arial" font-size="13px" font-style="normal" font-weight="normal" text-decoration="none" x="906.5" y="179.5">4 : pendingRequests?</text></g></g><g transform="translate(-62,10) scale(1,1)"><rect fill="#ffffff" stroke="none" x="1063" y="186" width="13" height="46"/></g><g transform="translate(-62,10) scale(1,1)"><path fill="none" stroke="#000000" d="M 1063 186 L 1076 186 L 1076 232 L 1063 232 L 1063 186 Z Z" stroke-miterlimit="10"/></g><g transform="translate(-62,10) scale(1,1)"><path fill="none" stroke="#000000" d="M 1076 194 L 1271 194" stroke-miterlimit="10"/></g><g transform="translate(-62,10) scale(1,1)"><path fill="#000000" stroke="none" d="M 1260.837325142376 198.209517756016 L 1271 194 L 1260.837325142376 189.790482243984"/></g><g transform="translate(-62,10) scale(1,1)"><path fill="none" stroke="#000000" d="M 1260.837325142376 198.209517756016 L 1271 194 L 1260.837325142376 189.790482243984 L 1260.837325142376 198.209517756016" stroke-miterlimit="10"/></g><g transform="translate(-62,10) scale(1,1)"><g><path fill="none" stroke="none"/><text fill="#000000" stroke="none" font-family="Arial" font-size="13px" font-style="normal" font-weight="normal" text-decoration="none" x="1111.812255859375" y="190.5">5 : pending_requests</text></g></g><g transform="translate(-62,10) scale(1,1)"><rect fill="#ffffff" stroke="none" x="1271" y="194" width="13" height="28"/></g><g transform="translate(-62,10) scale(1,1)"><path fill="none" stroke="#000000" d="M 1271 194 L 1284 194 L 1284 222 L 1271 222 L 1271 194 Z Z" stroke-miterlimit="10"/></g><g transform="translate(-62,10) scale(1,1)"><path fill="none" stroke="#000000" d="M 1271 216 L 1076 216" stroke-miterlimit="10" stroke-dasharray="3"/></g><g transform="translate(-62,10) scale(1,1)"><path fill="none" stroke="#000000" d="M 1086.162674857624 211.790482243984 L 1076 216 L 1086.162674857624 220.209517756016" stroke-miterlimit="10"/></g><g transform="translate(-62,10) scale(1,1)"><g><path fill="none" stroke="none"/><text fill="#000000" stroke="none" font-family="Arial" font-size="13px" font-style="normal" font-weight="normal" text-decoration="none" x="1120.554931640625" y="232.5">6 : pReq = Goal[*]</text></g></g><g transform="translate(-62,10) scale(1,1)"><path fill="none" stroke="#000000" d="M 1063 225 L 880 225" stroke-miterlimit="10" stroke-dasharray="3"/></g><g transform="translate(-62,10) scale(1,1)"><path fill="none" stroke="#000000" d="M 890.1626748576241 220.790482243984 L 880 225 L 890.1626748576241 229.209517756016" stroke-miterlimit="10"/></g><g transform="translate(-62,10) scale(1,1)"><g><path fill="none" stroke="none"/><text fill="#000000" stroke="none" font-family="Arial" font-size="13px" font-style="normal" font-weight="normal" text-decoration="none" x="945.554931640625" y="241.5">7 : pReq</text></g></g><g transform="translate(-62,10) scale(1,1)"><path fill="none" stroke="#000000" d="M 880 282 L 1063 282" stroke-miterlimit="10"/></g><g transform="translate(-62,10) scale(1,1)"><path fill="none" stroke="#000000" d="M 1052.837325142376 286.209517756016 L 1063 282 L 1052.837325142376 277.790482243984" stroke-miterlimit="10"/></g><g transform="translate(-62,10) scale(1,1)"><g><path fill="none" stroke="none"/><text fill="#000000" stroke="none" font-family="Arial" font-size="13px" font-style="normal" font-weight="normal" text-decoration="none" x="916.5" y="278.5">8 : publishCancel()</text></g></g><g transform="translate(-62,10) scale(1,1)"><rect fill="#ffffff" stroke="none" x="1063" y="282" width="13" height="28"/></g><g transform="translate(-62,10) scale(1,1)"><path fill="none" stroke="#000000" d="M 1063 282 L 1076 282 L 1076 310 L 1063 310 L 1063 282 Z Z" stroke-miterlimit="10"/></g><g transform="translate(-62,10) scale(1,1)"><path fill="none" stroke="#000000" d="M 1076 289 L 1271 289" stroke-miterlimit="10"/></g><g transform="translate(-62,10) scale(1,1)"><path fill="none" stroke="#000000" d="M 1260.837325142376 293.209517756016 L 1271 289 L 1260.837325142376 284.790482243984" stroke-miterlimit="10"/></g><g transform="translate(-62,10) scale(1,1)"><g><path fill="none" stroke="none"/><text fill="#000000" stroke="none" font-family="Arial" font-size="13px" font-style="normal" font-weight="normal" text-decoration="none" x="1119.5" y="285.5">9 : cancel_request</text></g></g><g transform="translate(-62,10) scale(1,1)"><rect fill="#ffffff" stroke="none" x="1271" y="289" width="13" height="28"/></g><g transform="translate(-62,10) scale(1,1)"><path fill="none" stroke="#000000" d="M 1271 289 L 1284 289 L 1284 317 L 1271 317 L 1271 289 Z Z" stroke-miterlimit="10"/></g><g transform="translate(-62,10) scale(1,1)"><path fill="none" stroke="#000000" d="M 1063 304 L 371 304" stroke-miterlimit="10"/></g><g transform="translate(-62,10) scale(1,1)"><path fill="none" stroke="#000000" d="M 381.16267485762415 299.790482243984 L 371 304 L 381.16267485762415 308.209517756016" stroke-miterlimit="10"/></g><g transform="translate(-62,10) scale(1,1)"><g><path fill="none" stroke="none"/><text fill="#000000" stroke="none" font-family="Arial" font-size="13px" font-style="normal" font-weight="normal" text-decoration="none" x="577.6708984375" y="320.5">10 : showAlert()</text></g></g><g transform="translate(-62,10) scale(1,1)"><rect fill="#ffffff" stroke="none" x="358" y="304" width="13" height="28"/></g><g transform="translate(-62,10) scale(1,1)"><path fill="none" stroke="#000000" d="M 358 304 L 371 304 L 371 332 L 358 332 L 358 304 Z Z" stroke-miterlimit="10"/></g><g transform="translate(-62,10) scale(1,1)"><path fill="none" stroke="#000000" d="M 358 328 L 159 328" stroke-miterlimit="10"/></g><g transform="translate(-62,10) scale(1,1)"><path fill="none" stroke="#000000" d="M 169.16267485762415 323.790482243984 L 159 328 L 169.16267485762415 332.209517756016" stroke-miterlimit="10"/></g><g transform="translate(-62,10) scale(1,1)"><g><path fill="none" stroke="none"/><text fill="#000000" stroke="none" font-family="Arial" font-size="13px" font-style="normal" font-weight="normal" text-decoration="none" x="235.09814453125" y="344.5">11 : OK</text></g></g><g transform="translate(-62,10) scale(1,1)"><rect fill="#ffffff" stroke="none" x="146" y="328" width="13" height="28"/></g><g transform="translate(-62,10) scale(1,1)"><path fill="none" stroke="#000000" d="M 146 328 L 159 328 L 159 356 L 146 356 L 146 328 Z Z" stroke-miterlimit="10"/></g><g transform="translate(-62,10) scale(1,1)"><path fill="none" stroke="#000000" d="M 867 384 L 371 384" stroke-miterlimit="10"/></g><g transform="translate(-62,10) scale(1,1)"><path fill="none" stroke="#000000" d="M 381.16267485762415 379.790482243984 L 371 384 L 381.16267485762415 388.209517756016" stroke-miterlimit="10"/></g><g transform="translate(-62,10) scale(1,1)"><g><path fill="none" stroke="none"/><text fill="#000000" stroke="none" font-family="Arial" font-size="13px" font-style="normal" font-weight="normal" text-decoration="none" x="570.5" y="400.5">12 : showToast()</text></g></g><g transform="translate(-62,10) scale(1,1)"><rect fill="#ffffff" stroke="none" x="358" y="384" width="13" height="28"/></g><g transform="translate(-62,10) scale(1,1)"><path fill="none" stroke="#000000" d="M 358 384 L 371 384 L 371 412 L 358 412 L 358 384 Z Z" stroke-miterlimit="10"/></g><g transform="translate(-62,10) scale(1,1)"><path fill="none" stroke="#000000" d="M 358 400 L 159 400" stroke-miterlimit="10"/></g><g transform="translate(-62,10) scale(1,1)"><path fill="none" stroke="#000000" d="M 169.16267485762415 395.790482243984 L 159 400 L 169.16267485762415 404.209517756016" stroke-miterlimit="10"/></g><g transform="translate(-62,10) scale(1,1)"><g><path fill="none" stroke="none"/><text fill="#000000" stroke="none" font-family="Arial" font-size="13px" font-style="normal" font-weight="normal" text-decoration="none" x="223.430419921875" y="416.5">13 : error</text></g></g><g transform="translate(-62,10) scale(1,1)"><rect fill="#ffffff" stroke="none" x="146" y="400" width="13" height="28"/></g><g transform="translate(-62,10) scale(1,1)"><path fill="none" stroke="#000000" d="M 146 400 L 159 400 L 159 428 L 146 428 L 146 400 Z Z" stroke-miterlimit="10"/></g><g transform="translate(-62,10) scale(1,1)"><path fill="none" stroke="#000000" d="M 736 248 L 1312 248 L 1312 415 L 736 415 L 736 248" stroke-miterlimit="10"/></g><g transform="translate(-62,10) scale(1,1)"><path fill="#ffffff" stroke="none" d="M 736 248 L 736 270 L 866.91796875 270 L 877.91796875 259 L 877.91796875 248 L 736 248"/></g><g transform="translate(-62,10) scale(1,1)"><path fill="none" stroke="#000000" d="M 736 248 L 736 270 L 866.91796875 270 L 877.91796875 259 L 877.91796875 248 L 736 248 L 736 248" stroke-miterlimit="10"/></g><g transform="translate(-62,10) scale(1,1)"><g><path fill="none" stroke="none"/><text fill="#000000" stroke="none" font-family="Arial" font-size="13px" font-style="normal" font-weight="normal" text-decoration="none" x="760.72998046875" y="265.5">pendingRequests</text></g></g><g transform="translate(-62,10) scale(1,1)"><g><path fill="none" stroke="none"/><text fill="#000000" stroke="none" font-family="Arial" font-size="13px" font-style="normal" font-weight="bold" text-decoration="none" x="741" y="265.5">alt</text></g></g><g transform="translate(-62,10) scale(1,1)"><g><path fill="none" stroke="none"/><text fill="#000000" stroke="none" font-family="Arial" font-size="13px" font-style="normal" font-weight="normal" text-decoration="none" x="755.5" y="298.5">[pReq.size&gt;0]</text></g></g><g transform="translate(-62,10) scale(1,1)"><path fill="none" stroke="#000000" d="M 736 337 L 1312 337" stroke-miterlimit="10" stroke-dasharray="10,3"/></g><g transform="translate(-62,10) scale(1,1)"><g><path fill="none" stroke="none"/><text fill="#000000" stroke="none" font-family="Arial" font-size="13px" font-style="normal" font-weight="normal" text-decoration="none" x="755.5" y="364.5">[pReq.size=0]</text></g></g></g></svg>